<svg xmlns="http://www.w3.org/2000/svg" width="1276" height="905"><path fill="#dfdee9" d="M0 0h1276v905H0z"/><path fill="#fdfdfd" d="M407 231.6h53.3c2.7.4 2.7.4 4.5 1.6 1.7 2.6 1.6 4.7 1.6 7.8v53.3c-.4 2.7-.4 2.7-1.6 4.5-2.6 1.7-4.7 1.6-7.8 1.6h-53.3c-2.7-.4-2.7-.4-4.5-1.6-1.7-2.6-1.6-4.7-1.6-7.8v-53.3c.4-2.7.4-2.7 1.6-4.5 2.6-1.7 4.7-1.6 7.8-1.6"/><path fill="#fcfefe" d="M271 231.6h53.3c2.7.4 2.7.4 4.5 1.6 1.7 2.6 1.6 4.7 1.6 7.8v53.3c-.4 2.7-.4 2.7-1.6 4.5-2.6 1.7-4.7 1.6-7.8 1.6h-53.3c-2.7-.4-2.7-.4-4.5-1.6-1.7-2.6-1.6-4.7-1.6-7.8v-53.3c.4-2.7.4-2.7 1.6-4.5 2.6-1.7 4.7-1.6 7.8-1.6"/><path fill="#fdfefe" d="M407 493.6h53.3c2.7.4 2.7.4 4.5 1.6 1.7 2.6 1.6 4.7 1.6 7.8v53.3c-.4 2.7-.4 2.7-1.6 4.5-2.6 1.7-4.7 1.6-7.8 1.6h-53.3c-2.7-.4-2.7-.4-4.5-1.6-1.7-2.6-1.6-4.7-1.6-7.8v-53.3c.4-2.7.4-2.7 1.6-4.5 2.6-1.7 4.7-1.6 7.8-1.6"/><path fill="#fefefe" d="M271 493.6h53.3c2.7.4 2.7.4 4.5 1.6 1.7 2.6 1.6 4.7 1.6 7.8v53.3c-.4 2.7-.4 2.7-1.6 4.5-2.6 1.7-4.7 1.6-7.8 1.6h-53.3c-2.7-.4-2.7-.4-4.5-1.6-1.7-2.6-1.6-4.7-1.6-7.8v-53.3c.4-2.7.4-2.7 1.6-4.5 2.6-1.7 4.7-1.6 7.8-1.6m682 131h53.3c2.7.4 2.7.4 4.5 1.6 1.7 2.6 1.6 4.7 1.6 7.8v53.3c-.4 2.7-.4 2.7-1.6 4.5-2.6 1.7-4.7 1.6-7.8 1.6h-53.3c-2.7-.4-2.7-.4-4.5-1.6-1.7-2.6-1.6-4.7-1.6-7.8v-53.3c.4-2.7.4-2.7 1.6-4.5 2.6-1.7 4.7-1.6 7.8-1.6m-273 0h53.3c2.7.4 2.7.4 4.5 1.6 1.7 2.6 1.6 4.7 1.6 7.8v53.3c-.4 2.7-.4 2.7-1.6 4.5-2.6 1.7-4.7 1.6-7.8 1.6h-53.3c-2.7-.4-2.7-.4-4.5-1.6-1.7-2.6-1.6-4.7-1.6-7.8v-53.3c.4-2.7.4-2.7 1.6-4.5 2.6-1.7 4.7-1.6 7.8-1.6"/><path fill="#fefdfd" d="M544 624.6h53.3c2.7.4 2.7.4 4.5 1.6 1.7 2.6 1.6 4.7 1.6 7.8v53.3c-.4 2.7-.4 2.7-1.6 4.5-2.6 1.7-4.7 1.6-7.8 1.6h-53.3c-2.7-.4-2.7-.4-4.5-1.6-1.7-2.6-1.6-4.7-1.6-7.8v-53.3c.4-2.7.4-2.7 1.6-4.5 2.6-1.7 4.7-1.6 7.8-1.6"/><path fill="#fefefe" d="M407 624.6h53.3c2.7.4 2.7.4 4.5 1.6 1.7 2.6 1.6 4.7 1.6 7.8v53.3c-.4 2.7-.4 2.7-1.6 4.5-2.6 1.7-4.7 1.6-7.8 1.6h-53.3c-2.7-.4-2.7-.4-4.5-1.6-1.7-2.6-1.6-4.7-1.6-7.8v-53.3c.4-2.7.4-2.7 1.6-4.5 2.6-1.7 4.7-1.6 7.8-1.6"/><path fill="#fdfefe" d="M271 624.6h53.3c2.7.4 2.7.4 4.5 1.6 1.7 2.6 1.6 4.7 1.6 7.8v53.3c-.4 2.7-.4 2.7-1.6 4.5-2.6 1.7-4.7 1.6-7.8 1.6h-53.3c-2.7-.4-2.7-.4-4.5-1.6-1.7-2.6-1.6-4.7-1.6-7.8v-53.3c.4-2.7.4-2.7 1.6-4.5 2.6-1.7 4.7-1.6 7.8-1.6m682-131h53.3c2.7.4 2.7.4 4.5 1.6 1.7 2.6 1.6 4.7 1.6 7.8v53.3c-.4 2.7-.4 2.7-1.6 4.5-2.6 1.7-4.7 1.6-7.8 1.6h-53.3c-2.7-.4-2.7-.4-4.5-1.6-1.7-2.6-1.6-4.7-1.6-7.8v-53.3c.4-2.7.4-2.7 1.6-4.5 2.6-1.7 4.7-1.6 7.8-1.6"/><path fill="#fefefe" d="M816 493.6h53.3c2.7.4 2.7.4 4.5 1.6 1.7 2.6 1.6 4.7 1.6 7.8v53.3c-.4 2.7-.4 2.7-1.6 4.5-2.6 1.7-4.7 1.6-7.8 1.6h-53.3c-2.7-.4-2.7-.4-4.5-1.6-1.7-2.6-1.6-4.7-1.6-7.8v-53.3c.4-2.7.4-2.7 1.6-4.5 2.6-1.7 4.7-1.6 7.8-1.6"/><path fill="#fefefd" d="M544 493.6h53.3c2.7.4 2.7.4 4.5 1.6 1.7 2.6 1.6 4.7 1.6 7.8v53.3c-.4 2.7-.4 2.7-1.6 4.5-2.6 1.7-4.7 1.6-7.8 1.6h-53.3c-2.7-.4-2.7-.4-4.5-1.6-1.7-2.6-1.6-4.7-1.6-7.8v-53.3c.4-2.7.4-2.7 1.6-4.5 2.6-1.7 4.7-1.6 7.8-1.6"/><path fill="#fefefe" d="M953 362.6h53.3c2.7.4 2.7.4 4.5 1.6 1.7 2.6 1.6 4.7 1.6 7.8v53.3c-.4 2.7-.4 2.7-1.6 4.5-2.6 1.7-4.7 1.6-7.8 1.6h-53.3c-2.7-.4-2.7-.4-4.5-1.6-1.7-2.6-1.6-4.7-1.6-7.8v-53.3c.4-2.7.4-2.7 1.6-4.5 2.6-1.7 4.7-1.6 7.8-1.6"/><path fill="#fdfefe" d="M816 362.6h53.3c2.7.4 2.7.4 4.5 1.6 1.7 2.6 1.6 4.7 1.6 7.8v53.3c-.4 2.7-.4 2.7-1.6 4.5-2.6 1.7-4.7 1.6-7.8 1.6h-53.3c-2.7-.4-2.7-.4-4.5-1.6-1.7-2.6-1.6-4.7-1.6-7.8v-53.3c.4-2.7.4-2.7 1.6-4.5 2.6-1.7 4.7-1.6 7.8-1.6"/><path fill="#fefefe" d="M680 362.6h53.3c2.7.4 2.7.4 4.5 1.6 1.7 2.6 1.6 4.7 1.6 7.8v53.3c-.4 2.7-.4 2.7-1.6 4.5-2.6 1.7-4.7 1.6-7.8 1.6h-53.3c-2.7-.4-2.7-.4-4.5-1.6-1.7-2.6-1.6-4.7-1.6-7.8v-53.3c.4-2.7.4-2.7 1.6-4.5 2.6-1.7 4.7-1.6 7.8-1.6m-136 0h53.3c2.7.4 2.7.4 4.5 1.6 1.7 2.6 1.6 4.7 1.6 7.8v53.3c-.4 2.7-.4 2.7-1.6 4.5-2.6 1.7-4.7 1.6-7.8 1.6h-53.3c-2.7-.4-2.7-.4-4.5-1.6-1.7-2.6-1.6-4.7-1.6-7.8v-53.3c.4-2.7.4-2.7 1.6-4.5 2.6-1.7 4.7-1.6 7.8-1.6m-137 0h53.3c2.7.4 2.7.4 4.5 1.6 1.7 2.6 1.6 4.7 1.6 7.8v53.3c-.4 2.7-.4 2.7-1.6 4.5-2.6 1.7-4.7 1.6-7.8 1.6h-53.3c-2.7-.4-2.7-.4-4.5-1.6-1.7-2.6-1.6-4.7-1.6-7.8v-53.3c.4-2.7.4-2.7 1.6-4.5 2.6-1.7 4.7-1.6 7.8-1.6m-136 0h53.3c2.7.4 2.7.4 4.5 1.6 1.7 2.6 1.6 4.7 1.6 7.8v53.3c-.4 2.7-.4 2.7-1.6 4.5-2.6 1.7-4.7 1.6-7.8 1.6h-53.3c-2.7-.4-2.7-.4-4.5-1.6-1.7-2.6-1.6-4.7-1.6-7.8v-53.3c.4-2.7.4-2.7 1.6-4.5 2.6-1.7 4.7-1.6 7.8-1.6m545-131h53.3c2.7.4 2.7.4 4.5 1.6 1.7 2.6 1.6 4.7 1.6 7.8v53.3c-.4 2.7-.4 2.7-1.6 4.5-2.6 1.7-4.7 1.6-7.8 1.6h-53.3c-2.7-.4-2.7-.4-4.5-1.6-1.7-2.6-1.6-4.7-1.6-7.8v-53.3c.4-2.7.4-2.7 1.6-4.5 2.6-1.7 4.7-1.6 7.8-1.6m-136 0h53.3c2.7.4 2.7.4 4.5 1.6 1.7 2.6 1.6 4.7 1.6 7.8v53.3c-.4 2.7-.4 2.7-1.6 4.5-2.6 1.7-4.7 1.6-7.8 1.6h-53.3c-2.7-.4-2.7-.4-4.5-1.6-1.7-2.6-1.6-4.7-1.6-7.8v-53.3c.4-2.7.4-2.7 1.6-4.5 2.6-1.7 4.7-1.6 7.8-1.6m-136 0h53.3c2.7.4 2.7.4 4.5 1.6 1.7 2.6 1.6 4.7 1.6 7.8v53.3c-.4 2.7-.4 2.7-1.6 4.5-2.6 1.7-4.7 1.6-7.8 1.6h-53.3c-2.7-.4-2.7-.4-4.5-1.6-1.7-2.6-1.6-4.7-1.6-7.8v-53.3c.4-2.7.4-2.7 1.6-4.5 2.6-1.7 4.7-1.6 7.8-1.6"/><path fill="#fdfdfe" d="M953 100.6h53.3c2.7.4 2.7.4 4.5 1.6 1.7 2.6 1.6 4.7 1.6 7.8v53.3c-.4 2.7-.4 2.7-1.6 4.5-2.6 1.7-4.7 1.6-7.8 1.6h-53.3c-2.7-.4-2.7-.4-4.5-1.6-1.7-2.6-1.6-4.7-1.6-7.8v-53.3c.4-2.7.4-2.7 1.6-4.5 2.6-1.7 4.7-1.6 7.8-1.6"/><path fill="#fefefe" d="M816 100.6h53.3c2.7.4 2.7.4 4.5 1.6 1.7 2.6 1.6 4.7 1.6 7.8v53.3c-.4 2.7-.4 2.7-1.6 4.5-2.6 1.7-4.7 1.6-7.8 1.6h-53.3c-2.7-.4-2.7-.4-4.5-1.6-1.7-2.6-1.6-4.7-1.6-7.8v-53.3c.4-2.7.4-2.7 1.6-4.5 2.6-1.7 4.7-1.6 7.8-1.6"/><path fill="#fdfefe" d="M544 100.6h53.3c2.7.4 2.7.4 4.5 1.6 1.7 2.6 1.6 4.7 1.6 7.8v53.3c-.4 2.7-.4 2.7-1.6 4.5-2.6 1.7-4.7 1.6-7.8 1.6h-53.3c-2.7-.4-2.7-.4-4.5-1.6-1.7-2.6-1.6-4.7-1.6-7.8v-53.3c.4-2.7.4-2.7 1.6-4.5 2.6-1.7 4.7-1.6 7.8-1.6"/><path fill="#fefefe" d="M407 100.6h53.3c2.7.4 2.7.4 4.5 1.6 1.7 2.6 1.6 4.7 1.6 7.8v53.3c-.4 2.7-.4 2.7-1.6 4.5-2.6 1.7-4.7 1.6-7.8 1.6h-53.3c-2.7-.4-2.7-.4-4.5-1.6-1.7-2.6-1.6-4.7-1.6-7.8v-53.3c.4-2.7.4-2.7 1.6-4.5 2.6-1.7 4.7-1.6 7.8-1.6m-136 0h53.3c2.7.4 2.7.4 4.5 1.6 1.7 2.6 1.6 4.7 1.6 7.8v53.3c-.4 2.7-.4 2.7-1.6 4.5-2.6 1.7-4.7 1.6-7.8 1.6h-53.3c-2.7-.4-2.7-.4-4.5-1.6-1.7-2.6-1.6-4.7-1.6-7.8v-53.3c.4-2.7.4-2.7 1.6-4.5 2.6-1.7 4.7-1.6 7.8-1.6"/><path fill="#383838" d="M823.3 634.7h38.8c1.9.3 1.9.3 3.9 2.3.3 1.9.3 1.9.3 4.2v37.9c-.3 1.9-.3 1.9-2.3 3.9-2 .3-2 .3-4.3.3h-38.8c-1.9-.3-1.9-.3-3.9-2.3-.3-1.9-.3-1.9-.3-4.2v-37.9c.6-4 3.1-4.2 6.6-4.2"/><path fill="#fdfdfd" d="M816 624.6h53.3c2.7.4 2.7.4 4.5 1.6 1.7 2.6 1.6 4.7 1.6 7.8v53.3c-.4 2.7-.4 2.7-1.6 4.5-2.6 1.7-4.7 1.6-7.8 1.6h-53.3c-2.7-.4-2.7-.4-4.5-1.6-1.7-2.6-1.6-4.7-1.6-7.8v-53.3c.4-2.7.4-2.7 1.6-4.5 2.6-1.7 4.7-1.6 7.8-1.6m1 12.4c-.3 2-.3 2-.3 4.2v37.9c.1 2.1.1 2.1 2.3 3.9 2 .3 2 .3 4.3.3h38.8c2.1-.1 2.1-.1 3.9-2.3.3-2 .3-2 .3-4.2v-37.9c-.1-2.1-.1-2.1-2.3-3.9-2-.3-2-.3-4.3-.3h-38.8c-2.1.1-2.1.1-3.9 2.3"/><path fill="#f9fdfd" d="M309 244a28 28 0 0 1 12 16 28 28 0 0 1-4 20c-4.6 5-9.4 9.8-16.4 10.2h-7.8c-3.8-.2-3.8-.2-7.4-.8-3.4-.4-6-.2-9.3.5l-3 .6-2.1.5.5-2.2c1.4-7 1.8-12-.5-18.8-1-7.7.6-13.6 5-20a26.5 26.5 0 0 1 33-6"/><path fill="#e5dce6" d="M980.3 109.3h3.8c8.7.2 8.7.2 12.3 1.6 2.8 3.6 2.1 7.6 2 12V150l-.1 2.7v2.3c-.3 1.9-.3 1.9-2.3 3.9q-4 .3-8 .3h-22.3c-5.5 0-5.5 0-7.7-2.3q-.4-4.2-.5-8.4V146l-.3-13.5c-.3-14.6-.3-14.6 4-19.7 5.6-4.3 12.2-3.8 19-3.5"/><path fill="#228ce9" d="M574 111.8a92 92 0 0 1 8.3 4.6c4 2.3 7.4 4.4 9.7 8.6q.8 5 .6 10v2.6c0 4.5-.3 6.9-2.7 10.8a46 46 0 0 1-10.3 7l-1.9 1A19 19 0 0 1 565 159a49 49 0 0 1-7.7-4.2l-2-1.2a24 24 0 0 1-9.3-8.6q-.7-5-.6-10v-2.6c0-4.5.3-6.9 2.7-10.8a50 50 0 0 1 9.8-7l1.8-1c4.8-2.8 9-4 14.3-1.8"/><path fill="#1b6f67" d="M560.7 244.5h2.2l11.6.3 11.5.2v4h4l.5 25.3v2.1c0 3.7-.4 5.5-2.5 8.6-3.7 2.5-6.4 2.6-10.7 2.5L552 287v-4h-4l-.5-25.3v-2.1c0-3.7.4-5.5 2.5-8.6 3.7-2.5 6.4-2.6 10.7-2.5"/><path fill="#f78614" d="M307.1 116.7q6.8 4.7 9.9 12.3c1 7 .3 13.2-4 19a22 22 0 0 1-15.7 8.2h-13c-8.2 0-8.2 0-9.3-1.2q-.4-6-.3-12l-.1-3.5c0-7.9 1-13.4 6.1-19.5 8-6.5 17.2-8.5 26.4-3.3"/><path fill="#fbb945" d="M845.9 244.8h2.2l13.9.2v40c-2 2-2 2-5.9 2.2h-7.7L820 287l-.1-11.4v-3.2l-.1-3.2v-2.9c.2-2.3.2-2.3 2.2-4.3h9l-.1-2.9c.1-3.1.1-3.1 2.1-5.1h9l-.1-3.4c.2-5.4.2-5.4 4-5.8"/><path fill="#2e6489" d="M851.4 377.6a29 29 0 0 1 13 12.7A28 28 0 0 1 862 411a24 24 0 0 1-17.4 10.3c-6.6.4-11.4-1.2-16.6-5.3-6.1-6.6-7.3-11.8-7.3-20.7.4-4.6 1.5-6.8 4.3-10.3l3-1 10 13 5-1c-.2-3.8-1-5-3.7-7.7l-3.4-2.6-1.7-1.4-4.2-3.3c6.4-5 13.5-5.5 21.4-3.4"/><path fill="#fcfdfd" d="m292 507 7.4-.1h2l5.6.1c2 2 2 2 2.2 5.5v4.1l-.1 2.2-.1 5.2h8l.1 7.4v2l-.1 5.6c-2 2-2 2-5.5 2.2h-4.1l-2.2-.1-5.2-.1v8h-15c-2-2-2-2-2.2-5.5v-4.1l.1-2.2.1-5.2h-8l-.1-7.4v-2l.1-5.6c2-2 2-2 5.5-2.2h4.1l2.2.1 5.2.1z"/><path fill="#fab848" d="M555.7 375.7h4.4c5.5 0 5.5 0 7.5 1.7l1.4 1.6 6 2.3c5.8 2.3 5.8 2.3 7.9 5.6l1.1 3.1q2.4 2.4 4.9 4.4c1.1 1.6 1.1 1.6.9 4-1.5 4.9-5.5 8-9 11.5l-2.4 2.4-2.2 2.3-2 2c-2.2 1.4-2.2 1.4-4.8 1.2-3.1-1-4.5-2.7-6.7-5.2a22 22 0 0 0-12-7.2c-1.7-.4-1.7-.4-2.7-1.4q-.3-6.4-.2-13v-10.4c.4-5.2 3.4-4.9 8-5"/><path fill="#2fe3fe" d="M989 504v12l5 2 4 2c0 3 0 3-1.5 4.7L995 526l3 1-1 3h-2l1.5 1.3c1.5 1.7 1.5 1.7 1.5 4.7l-2 1.1-9.2 5.2-3.2 1.8-3 1.8-3 1.6-5.3 3.2C970 552 970 552 967 552v-12l-5-2-4-2 1-4h2v-2l-3-1 2-4-2-2v-3l2.2-1.3 17-9.4 3.2-1.8c6-3.5 6-3.5 8.6-3.5"/><path fill="#1bd1ba" d="M686.3 249.9h8.8l22.7-.1h8.2c2 .2 2 .2 4 2.2 0 2.2 0 2.2-1 5l-5.5 5c-1.8 2-1.8 2-1.4 4.8-.2 5.2-3.6 7.8-7.1 11.2-3.2 2.8-5.8 5-10.1 5.4-5.7-.8-9.2-4.7-13-8.6-1.9-2.8-1.9-2.8-1.9-5.8.3-3.2.3-3.2-2.2-5.6l-2.9-2.5c-2.8-2.4-2.8-2.4-4.9-4.9.2-5.3 1.3-6.1 6.3-6.1"/><path fill="#975285" d="M726 508v40a63 63 0 0 1-17.7-4.2l-2.3-.8-2 6-3.2-2.7-2-1.7c-1.8-1.6-1.8-1.6-3.7-3.7-3.2-2.9-7.1-4.3-11.1-5.9.4-2.6.7-3.7 2.7-5.5l2.2-1.3 2.4-1.6 2.7-1.7 5.5-3.4 2.8-1.8a320 320 0 0 0 14.3-9.5c5-3.3 5-3.3 9.4-2.2"/><path fill="#f86126" d="m560.4 510.3 2.4.3c2.2.4 2.2.4 4.9 1.6l2.3.8 2.8-1.4c3.6-1.8 5.4-2 9.3-1.3a14 14 0 0 1 7.9 7.7c0 4.3-.4 8-2.6 11.6q-4 3.9-8.3 7.6-4.7 4.3-9.1 8.8c-4-1.6-6.5-4.3-9.4-7.3L555 533l-2.8-2.7c-3-3-4-5-4.6-9.2.5-4 1.9-6 4.4-9.1 3-2 5-2.2 8.4-1.7"/><path fill="#fbb946" d="m977 376 3 1v40h-4v-3h-1.9l-8.5.1h-3l-2.8.1h-2.6c-2.2-.2-2.2-.2-4.2-2.2-.3-3-.3-3-.3-6.7V385c.3-2.9.3-2.9 2.3-4.9 2.2-.2 2.2-.2 4.8-.2h5.8l3 .1 7.4.1z"/><path fill="#20d4bc" d="M307.1 640.7q6.8 4.7 9.9 12.3c1 7.4-.2 12.6-4 19-4 0-4 0-6.2-2l-1.8-2 1-2a24 24 0 0 0 .3-13.9c-1.8-2.9-3-3.3-6.3-4.1-5.1-.7-5.1-.7-9.8 1-2.2 1.8-4 3.5-5.2 6-.4 5-.1 8 3 12 4.1 3.8 8.5 3.7 14 4.2 3.8 1 5 2.4 7 5.8v3l-8.5.3h-2.4c-6.8.2-11.9-1.6-17.1-6a25 25 0 0 1-6.3-18c.9-6.5 4.4-11.1 9.5-15.1 7-4.7 15.7-4.6 23-.5"/><path fill="#0b8bf2" d="M413 643h38l-2 8-13 1 11 3c-.9 6.9-.9 6.9-2 8l-7 1 6 2-2 9h-20l-2-8 6-1-3.4-1.2c-2.8-1.2-3.5-1.5-5-4.3-.6-2.5-.6-2.5-.6-5.5l5-1-3.4-1c-1.9-.6-1.9-.6-3.6-2z"/><path fill="#32bdf9" d="M414.4 529.6c3.8 0 6.7 1 10.2 2.5 5.2 2 8 2.2 13.3.1 5-2 8.6-2.7 14.1-2.2 2.5 1.5 2.5 1.5 4 3-.3 6-3 9.7-7 14-6.3 5-12.2 6.5-20.1 6.4-7.5-1-13.1-4.8-17.7-10.7-3.3-4.8-3.3-4.8-3-8.3 1.3-3.9 2.2-4.3 6.2-4.8"/><path fill="#1ed3bc" d="M441.8 504.7A28 28 0 0 1 456 519c0 2.8 0 2.8-1 5-3.8 2.5-6.7 2.6-11 2l-5.1-2c-5-2.2-7.8-2.1-13-.2A31 31 0 0 1 411 526c-2-1.1-2-1.1-3-3-.1-5 2.2-8.3 5.2-12.1a25 25 0 0 1 28.6-6.2"/><path fill="#1cd3bb" d="m980 380 10.4-.1h3.2l2.6-.1h2.6c2.2.2 2.2.2 4.2 2.2a52 52 0 0 1 .3 8.7V409c-.3 2.9-.3 2.9-2.3 4.9-2.2.2-2.2.2-4.8.2h-5.8L980 414z"/><path fill="#965787" d="M447 377c2 1 2 1 6 6l-13 13 8 4c2.5 3.8 2.5 5.5 2 10a17 17 0 0 1-7 7c-4.2.6-5.7.2-9.3-2.2a18 18 0 0 1-4.7-7.8l-2 2.2-2.8 2.9-2.6 2.8c-2.6 2.1-2.6 2.1-4.7 2.2-2.6-1.5-4-3.7-5.9-6.1l26.2-26.7 2.2-2.2 2-2 1.8-2c1.8-1.1 1.8-1.1 3.8-1.1"/><path fill="#e84d66" d="M446 249c2.8 2 3.8 3.1 4.4 6.5-.4 2.5-.4 2.5-1.9 4.4-2 2.9-2 4.7-1.5 8.1l1.5 2c2 2.7 1.5 4.7 1.5 8l3 2-1 4-4-1-1-2h-3a38 38 0 0 1-8-.7c-4.1-.7-6.5.7-10.1 2.8a12 12 0 0 1-7.9.9c-1.9-1.1-1.9-1.1-3-3-.5-3-.5-3 0-6 2.2-2.8 3.8-3.9 7.3-4.3q7-.1 13.7 1.3l.4-3.4c.6-3.6.6-3.6 1.6-5.6l-3.6-.3A23 23 0 0 1 419 255l1-3 2.5.5c9.3 1.3 15.5-4.9 23.5-3.5"/><path fill="#1ed3bc" d="m717 377 4 2.7 2.2 1.5a10 10 0 0 1 2.9 4c-.1 4.3-2.7 6.7-5.4 9.7l-3.3 4-1.7 2-8 10-4.7 6.1c-15.6-11.6-15.6-11.6-19-15 .1-5 2.8-7.5 6-11a23 23 0 0 1 6.6 4.2l2.4 1.8c4-1.3 5.5-4 7.9-7.2l2.5-3.4 1.3-1.7z"/><path fill="#f7642a" d="M978 638v13l-3 1.4c-3 1.3-3 1.3-4 3.6-.4 3.6-.4 5.4 1.6 8.4 3.1 2 4.7 2.1 8.4 1.6l5-3 5 2.9 2.8 1.6 2.2 1.5v2l-7.6 4.6-2.2 1.3c-3.3 1.9-5.4 3-9.3 3.1q-5.3-2-10.2-5l-2-1c-4.6-2.7-4.6-2.7-5.7-5q-.3-5-.2-10l-.1-2.7V651c.4-2.6 1.2-3.4 3.3-5.1l7-4.2 2-1.1c4.7-2.7 4.7-2.7 7-2.7"/><path fill="#71ae39" d="M1238 7.7h14.8c2.2.3 2.2.3 4.2 2.3.3 2.2.3 2.2.3 5v14.8c-.3 2.2-.3 2.2-2.3 4.2-2.2.3-2.2.3-5 .3h-14.8c-2.2-.3-2.2-.3-4.2-2.3-.3-2.2-.3-2.2-.3-5V12.3c.6-4.6 3.3-4.5 7.2-4.5"/><path fill="#27cbd0" d="M309 244a28 28 0 0 1 12 16 28 28 0 0 1-4 20c-4.6 5-9.4 9.8-16.4 10.2h-7.8c-3.8-.2-3.8-.2-7.4-.8-3.4-.4-6-.2-9.3.5l-3 .6-2.1.5.5-2.2c1.4-7 1.8-12-.5-18.8-1-7.7.6-13.6 5-20a26.5 26.5 0 0 1 33-6m-30 8a31 31 0 0 0-2.4 24.9q.6 4 .4 8.1h4.4l2.4-.1a7 7 0 0 1 4.2 1.1c8.3.8 15.5 1.2 22.3-4.2 4.7-4.9 6.5-10 7-16.6q0-8-6-14a22 22 0 0 0-17-6.5A24 24 0 0 0 279 252"/><path fill="#3be2e6" d="M574 111.8a92 92 0 0 1 8.3 4.6c4 2.3 7.4 4.4 9.7 8.6q.8 5 .6 10v2.6c0 4.5-.3 6.9-2.7 10.8a46 46 0 0 1-10.3 7l-1.9 1A19 19 0 0 1 565 159a49 49 0 0 1-7.7-4.2l-2-1.2a24 24 0 0 1-9.3-8.6q-.7-5-.6-10v-2.6c0-4.5.3-6.9 2.7-10.8a50 50 0 0 1 9.8-7l1.8-1c4.8-2.8 9-4 14.3-1.8m-14.7 7-1.8 1.2a37 37 0 0 0-6.5 5q-.6 5-.4 9.9l-.1 2.7c-.2 5.5-.2 5.5 2.7 9.8l2.8 1.6 2.5 1.7 2.4 1.6 2.5 1.5a13 13 0 0 0 8.6 1.2q3.9-1.9 7.3-4.4l2-1.3c3-2 3-2 5.7-4.3 1.7-11.8 1.7-11.8-1.8-22.5a38 38 0 0 0-7.2-3.5l-3.2-2.4c-6-3.4-10.2-1.3-15.5 2.3"/><path fill="#2ebbf8" d="M555.8 375.7h4.4c5.5 0 5.5 0 7.8 2.3.3 2.6.3 2.6.3 5.8v17.6c-.3 2.6-.3 2.6-2.3 4.6q-4 .3-8 .3h-2.2c-5.5 0-5.5 0-7.8-2.3-.3-2.6-.3-2.6-.3-5.8v-17.6c.6-5.2 3.5-4.9 8-4.9"/><path fill="#fbb947" d="M978 638a59 59 0 0 1 15.5 7.3c2.5 1.7 2.5 1.7 3.5 3.7l.1 4.8v8.8l-.1 7.4-12-6-4 3c-3 .5-3 .5-6 0-3.3-2.5-4.8-4-5.6-8 .8-4 2.4-5.5 5.6-8h3z"/><path fill="#0d6680" d="M853.8 115.5c2.2.5 2.2.5 4.2 2.5 0 4.8-1.7 7.3-5 10.6l-1.8 1.7-11 10.8-9.2 8.9 31 1-1 3h-41c0-7 0-7 1.1-9l1.7-1.6 1.8-2 2-1.9 2-2 11-10.8 6.1-6.2c4.6-4.4 4.6-4.4 8.1-5"/><path fill="#089cde" d="m964.4 526 2.6 1.3 2.6 1.4c2.4 1.3 2.4 1.3 5.4 3.3 5.6 1.1 9.1-1.6 13.6-4.6 2.3-1.3 3.8-2.1 6.4-2.4l3 2-1 3h-2l1.5 1.3c1.5 1.7 1.5 1.7 1.5 4.7l-2 1.1-9.2 5.2-3.2 1.8-3 1.8-3 1.6-5.3 3.2C970 552 970 552 967 552v-12l-5-2-4-2 1-4h2v-2l-3-1 1-3c3-1 3-1 5.4 0"/><path fill="#995383" d="M573.9 642.1c4.6 2 8 6.2 11.4 9.7l2.6 2.5 2.4 2.4 2.2 2.2c1.5 2.1 1.5 2.1 1.4 4.2-1.5 3.1-3.8 5.3-6.2 7.7l-1.5 1.6c-1.4 1.4-1.4 1.4-4.2 3.6-3.4 0-4.2-1.2-6.7-3.6L573 670c1.2-2.5 2-4 4-6 0-2 0-2-1-4-2-1.8-2-1.8-4-3l-6 5-6-5c.4-5 2.7-7 6.3-10.4l3-2.7c2.7-1.9 2.7-1.9 4.6-1.8"/><path fill="#fab846" d="M558.2 642c3 1.7 4.7 4.2 6.8 7l-2 2.3c-2.2 2.4-2.2 2.4-2 4.8 1.3 2.4 2.8 3.5 5 4.9l7-5c2.6 2.3 2.6 2.3 5 5 .1 3.8-2.6 6.3-5 9-4.5 4.6-4.5 4.6-7 6-5.8-.6-9.5-6-13.3-9.8l-2.6-2.5-2.4-2.4-2.2-2.2c-1.5-2.1-1.5-2.1-1.4-4.2 1.5-3.1 3.8-5.3 6.2-7.7l1.5-1.6c3.6-3.6 3.6-3.6 6.4-3.6"/><path fill="#fb878b" d="m560.4 510.3 2.4.3c2.2.4 2.2.4 4.9 1.6l2.3.8 2.8-1.4c3.6-1.8 5.4-2 9.3-1.3a14 14 0 0 1 7.9 7.7l-.2 4.4-.2 2.3c-.6 2.3-.6 2.3-4.6 6.3l-15-15a22 22 0 0 0-7.2 5l-1.8 1.8-1.7 1.8-1.9 1.9-4.4 4.5c-3.9-3.5-4.8-5.7-5.2-10.7.3-3.7 1.8-5.7 4.2-8.3 3-1.9 5-2.2 8.4-1.7"/><path fill="#985184" d="M823.9 261.8h7.2l2.6.1 6.3.1.2 20.7c-.2 2.3-.2 2.3-2.2 4.3-1.9.2-1.9.2-4.1.2h-5l-2.6-.1-6.3-.1-.1-11.4v-3.2l-.1-3.2v-2.9c.3-3 1-4.2 4-4.5"/><path fill="#9a5687" d="M699 116c4 1.5 7 3 9 7 .6 4.1.2 5.7-2 9.4l-2 2.6 2 .9c2 1.1 2 1.1 3 3.1.4 5 .2 8.1-3 12a20 20 0 0 1-15 3c-3.4-1.4-4.6-2.2-6.3-5.5-.7-2.5-.7-2.5-.7-5.5h7l2 4h8c.2-3.4.2-3.4 0-7-2.8-2.8-5.2-2.6-9-3l1-5 7-1v-7l-7-1-2 3c-3.6.2-3.6.2-7 0 .2-3.7 1-5 3.6-7.8 3.6-2.8 7-3 11.4-2.2"/><path fill="#fbba4b" d="M429.3 117.3a13 13 0 0 1 5.7 5.7c.6 4.1.2 5.7-2 9.4l-2 2.6 2 .9c2 1.1 2 1.1 3 3.1.4 5 .2 8.1-3 12a20 20 0 0 1-15 3c-3.4-1.4-4.6-2.2-6.3-5.5-.7-2.5-.7-2.5-.7-5.5h7l2 4h8c.2-3.4.2-3.4 0-7-2.8-2.8-5.2-2.6-9-3l1-5 7-1v-8c-3.4-.3-3.4-.3-7 0l-2 3c-3.6.2-3.6.2-7 0 .5-4.3 1.7-6.2 5-9a18 18 0 0 1 13.3.3"/><path fill="#0c6680" d="M723 116c2 1 2 1 3 2l.2 4.1.1 2.5.1 5.3c.2 4.8.4 7.4 3.6 11.1.2 2.3.2 2.3-.1 4.6l-.3 2.3a8 8 0 0 1-3.6 5.1 15 15 0 0 1-12-.4 15 15 0 0 1-3-11.6c1.7-3 1.7-3 4-5l4-1-1-10-7 3c0-3.3.4-5.3 2.7-7.8 5.3-4.2 5.3-4.2 9.2-4.1"/><path fill="#f86329" d="M309 119c4.1 2.9 6.3 5.2 8 10 .9 7.1.4 13.2-4 19a22 22 0 0 1-15.5 8.2l-12-.1-7.5-.1q4-2 8.3-3.7a37 37 0 0 0 20.5-21.4A48 48 0 0 0 309 119"/><path fill="#985184" d="M961 244.8h7.6l2.7.1 6.7.1.2 14.6v2.4c-.2 2-.2 2-2.2 4-2 .2-2 .2-4.4.2h-5.2l-2.7-.1-6.7-.1-.1-9.4V254l-.1-2.5V249c.3-2.9 1.3-3.9 4.2-4.2"/><path fill="#f86126" d="M834.9 253.8h2.2l13.9.2.2 28c-.2 3-.2 3-2.2 5-2.6.2-2.6.2-5.6.1h-3l-2.4-.1 1-2a107 107 0 0 0 .6-11.6V270l.4-8.1h-9v-6c2-2 2-2 3.9-2.2"/><path fill="#975384" d="m828 533 28-.2h2.3l5.7.2c2 2 2 2 2.3 3.9v4.2c-.3 1.9-.3 1.9-2.3 3.9q-6.8.6-13.7.5l-3.8.1c-6.7 0-11.4 0-16.4-4.7-1.5-2.6-1.8-5-2.1-7.9"/><path fill="#1ed3bc" d="m703 634 .2 13.4v5.4c-.2 2.2-.2 2.2-2.2 4.2-2.2.2-2.2.2-4.8.2h-5.8l-3-.1-7.4-.1a24 24 0 0 1 9.3-17.9c4.6-3.1 8-5.1 13.7-5.1"/><path fill="#f9494f" d="m680 661 13.4-.2h5.4c2.2.2 2.2.2 4.2 2.2.2 2.2.2 2.2.2 4.8v5.8l-.1 3-.1 7.4a26 26 0 0 1-17.6-8.6 22 22 0 0 1-4.5-10.1l-.5-2.5z"/><path fill="#995385" d="M707 634c8 1.5 13.3 3.5 18.6 10 3 4.3 3.8 7.7 4.4 13l-13.4.2h-5.4c-2.2-.2-2.2-.2-4.2-2.2-.2-2.2-.2-2.2-.2-4.8v-5.8l.1-3z"/><path fill="#30bcfa" d="M711.2 660.8h8.4l3 .1 7.4.1a29 29 0 0 1-10.8 19.4 32 32 0 0 1-7.9 2.7l-2.4.5-1.9.4-.1-10.4v-3l-.1-2.8v-2.6c.3-3.1 1.3-4.1 4.4-4.4"/><path fill="#9a77a0" d="M980.3 109.3h3.8c8.7.2 8.7.2 12.3 1.6 2.8 3.6 2.1 7.6 2 12V150l-.1 2.7v2.3c-.3 1.9-.3 1.9-2.3 3.9q-4 .3-8 .3h-22.3c-5.5 0-5.5 0-7.7-2.3q-.4-4.2-.5-8.4V146l-.3-13.5c-.3-14.6-.3-14.6 4-19.7 5.6-4.3 12.2-3.8 19-3.5M968 113l-2 6-6 1-.1 28v2.4l.1 5.6c1.7 1.7 4 1.1 6.3 1.1h23.4c3.5.3 3.5.3 6.3-1.1l.1-9.2v-26.3c.4-4 .4-4-1.1-7.5l-6-.1h-11.5z"/><path fill="#3c4043" d="m824 652 7 1v6l1.9-3c2.1-3 2.1-3 4.1-4l5.9-.3 3.2-.1c3.5.5 4.7 1.6 6.9 4.4l3-4 4 1-5 5 .9 1.8 3.1 6.2c-3.3-.6-4.8-1.5-7-4l-4 5-1.6-.5c-2.5-.6-2.5-.6-5.8-.4-3.9-.1-5.5-.9-8.6-3.1l-2 3c-3.6.2-3.6.2-7 0l-2-5h3l1 2h3v-2l-3-1v-2l2-1 1-3h-3v3h-3c.9-3.9.9-3.9 2-5"/><path fill="#f78c1f" d="M283.4 378.7c3.6.3 3.6.3 5.6 2 1.3 3 1 4.3 0 7.3-2 2-2 2-4.6 2.1l-2.4-.1c-.6 9-.6 9 3 17a15 15 0 0 0 10.1 4.4c3.9.6 3.9.6 6.4 3.2l1.5 2.4a20 20 0 0 1-14.3.3c-6-2.7-9-6.6-12.5-12a24 24 0 0 1-.3-16l1.1-2.3 1-3.7c1.3-4.2 1.3-4.2 5.4-4.6"/><path fill="#154596" d="M413 643h38l-2 8-13 1 5 2v1c-17.9.6-17.9.6-25-3-2-3-2-3-3-9"/><path fill="#0fb28e" d="M295.6 375.7c6.2 0 10.6 1.7 15.2 6 4.4 5 6.5 8.5 6.4 15.3v3.1a14 14 0 0 1-2.2 6.9l-2 7c-1 1-1 1-3.9 1.3-3.1-.3-3.1-.3-5-1.4-1.6-2.8-1.6-4.7-1.1-7.9 2.3-2.3 4-3 7-4 .8-8 .8-8-2.3-15-3.6-3.7-7.4-3.9-12.3-4.5-2.4-.5-2.4-.5-4.6-3.1l-.8-2.4c1.6-1.6 3.3-1.2 5.6-1.3"/><path fill="#dd4555" d="M1112 8a12 12 0 0 1 5 4c.5 3.6.4 6-1 9.3-3.2 2.7-7 3-11 3.7v3l-8-1c1.3-2.5 2.5-2.9 5-4l-3 1-4.7 1-2.4.6-1.9.4-.4-1.9c-.6-2.1-.6-2.1-1.4-4.1-.2-2-.2-2 1.4-4.2 3-2.2 4.7-2.2 8.4-1.8l2 1 1.9-3c3-4.3 4.9-4.5 10.1-4"/><path fill="#995284" d="M978 638v13l-3 1.4c-3 1.3-3 1.3-4 3.6l.6 3.3c-.6 3.7-.6 3.7-2.8 5.5-7 4.2-7 4.2-9.8 4.2l-.2-9.8v-5.5l-.1-2.5c.4-2.7 1.2-3.5 3.3-5.2l7-4.2 2-1.1c4.7-2.7 4.7-2.7 7-2.7"/><path fill="#05607c" d="M690 391c4.2 1.8 7.6 4.6 11.1 7.4l2 1.4 1.8 1.5 1.7 1.3c1.4 1.4 1.4 1.4 3.4 5.4l-7 9c-15.7-11.7-15.7-11.7-19-15 .1-5 2.8-7.5 6-11"/><path fill="#955385" d="M716.3 249.4h3.3c8 .3 8 .3 10.4 2.6-.2 4.4-2 6.4-5 9.3l-2.3 2.1-1.7 1.6-3.5-2.4-2-1.3-1.5-1.3v-2c-2.7-.4-2.7-.4-6 0l-3 2.6c-3 2.4-3 2.4-5.9 2.2l-2.1-.8a8 8 0 0 1 1.1-6.8c5.4-6.2 10.3-6.1 18.2-5.8"/><path fill="#32baf7" d="m722 507 3 1-31 31-10-4c1.1-4.4 1.3-4.6 4.9-6.8l2.4-1.6 2.7-1.7 5.5-3.4 2.8-1.8 7.7-5 2.3-1.6 4.4-3z"/><path fill="#fbb946" d="M450 116c2 1 2 1 3 2v36h-5c-2.7-2.7-2.3-4.3-2.4-8.1l-.1-3.7-.1-3.8-.1-3.9-.3-9.5-7 3c0-3.3.4-5.3 2.7-7.8 5.3-4.2 5.3-4.2 9.2-4.1"/><path fill="#184697" d="M722 509c1 3 1 3 0 5.7q-1 1.5-1.8 3.1l-1.8 3.6-7.7 14.3L704 549a38 38 0 0 1-10-11l2.4-2.3L714 518l1.7-1.7q3.5-3.3 6.2-7.3"/><path fill="#20d3bc" d="M441.7 396.7c4 1.5 5.8 2.9 8.3 6.3.6 3.4.8 5.7-1 8.7-2.7 3.4-4.5 5.1-8.7 5.7-4.5-.5-6.3-2.1-9.3-5.4-1.4-3.3-1.4-3.3-1-7 3-4.6 6-7.8 11.7-8.3"/><path fill="#faba4a" d="M428 377c3.6 2.3 5.6 3.8 7 7.9 0 3.1 0 3.1-1.7 5.7l-2.4 2.3-2.4 2.3c-2.9 2-4.1 2.4-7.5 1.8-3.8-3.3-5.8-5.3-6.4-10.3.4-3.7.4-3.7 2.8-6.6 3.7-3 5.7-3.7 10.6-3.1"/><path fill="#20b9a3" d="M446 249c2.8 2 3.8 3.2 4.6 6.5-.8 3.5-2.7 4.5-5.6 6.5-5.7 2.8-13 .9-18.8-1-3.2-1.5-5-3.2-7.2-6l1-3 2.5.5c9.3 1.3 15.5-4.9 23.5-3.5"/><path fill="#fb868b" d="M586 249h4l.5 25.3v2.1c0 3.7-.4 5.5-2.5 8.6-3.7 2.5-6.4 2.6-10.7 2.5L552 287v-4h3l21.9-.7h2.1c3.3.1 3.3.1 6-1.3q.3-3.5.3-7.1v-2.1z"/><path fill="#1bd3bb" d="M560.7 244.5h2.2l11.6.3 11.5.2v4h-3l-21.9.7H559c-3.3-.1-3.3-.1-6 1.3l-.3 7.1v2.1L552 283h-4l-.5-25.3v-2.1c0-3.7.4-5.5 2.5-8.6 3.7-2.5 6.4-2.6 10.7-2.5"/><path fill="#2d6489" d="M564 379h4l.1 12.4v3.5l.1 3.4v3.2c-.2 2.5-.2 2.5-2.2 4.5-2.6.2-2.6.2-5.6.1h-3l-2.4-.1c-1-3.9-1-6 .6-9.8l1-2.7 1.2-2.7 1.1-2.8c2.8-6.7 2.8-6.7 5.1-9"/><path fill="#9a5486" d="M846 512c2.6 2 2.6 2 4 5q.5 4.1-1 8c-2.6 3-4.1 3.9-8 4.5-3.7-.6-5.3-2-8-4.5-1.4-2.9-1.3-4.8-1-8 4-5.9 7.2-7 14-5"/><path fill="#fab947" d="M584 511c2.6 2.2 4.5 4 6 7l-.2 4.4-.2 2.3c-.6 2.3-.6 2.3-4.6 6.3l-16-16c5-5 8.3-6 15-4"/><path fill="#9b5687" d="M431.7 134.7c2.3 1.3 2.3 1.3 4.3 4.3.3 3.7.3 6.3-1.1 9.8-2.9 3.4-5.7 5-10.1 5.5-4.7.2-8.1 0-11.8-3.3-1.5-3-2-4.7-2-8h7l2 4h8c.5-5.1.5-5.1-2-9.4l-2-1.6c3-1.5 4.4-2.2 7.7-1.3"/><path fill="#806bdc" d="m418 252 2 1 .3 1.9c1 3.1 2.8 3.6 5.7 5.1l6.3 1.7 3.3.7 2.4.6-2 9h-19l.2-6c0-2.3 0-2.3-2.2-5-.6-5.3-.6-5.3 1.5-7.9z"/><path fill="#f46329" d="M580 386c1 3.8 1 6-.6 9.6l-1 2.5-1.2 2.6-1.1 2.6c-2.8 6.4-2.8 6.4-5.1 8.7-5.5-.3-10.1-2.7-15-5v-1l2.2-.2 2.7-.2 2.8-.3c2.3 0 2.3 0 3.3-1.3l.1-5.1a15 15 0 0 1 6-11.7 8 8 0 0 1 6.9-1.2"/><path fill="#02c0f5" d="m964.4 526 2.6 1.3 2.6 1.4c2.4 1.3 2.4 1.3 5.4 3.3 5.6 1.1 9.1-1.6 13.6-4.6 2.3-1.3 3.8-2.1 6.4-2.4l3 2c-1.5 4.6-5.1 5.9-9.2 8.3l-2.3 1.4c-3.3 2-5.6 3.3-9.5 3.4a57 57 0 0 1-11.4-6.2l-2.2-1.4-5.4-3.5 1-3c3-1 3-1 5.4 0"/><path fill="#35b9f4" d="M858 383c4.2 3.8 6.7 6.5 7.2 12.3.3 7.8-1 13.7-6.4 19.5a25 25 0 0 1-19.3 6.6c-4.3-.7-8-2.8-11.5-5.4l-1-2 2.1 1a28 28 0 0 0 20.4-.6q7.8-4.7 10.5-13.4c.3-3.2.3-3.2.3-6.5v-3.3c-.3-3.2-1-5.4-2.3-8.2"/><path fill="#962b48" d="M831 262h9l.1 11.4v3.2l.1 3.2v2.9c-.2 2.3-.2 2.3-2.2 4.3h-7z"/><path fill="#cdcdce" d="M943 628h1v2.3l.7 57.1c0 2.8 0 2.8 2.3 4.6 2.7.3 2.7.3 5.9.3h53.5c2.8 0 2.8 0 4.6-2.3.3-2.7.3-2.7.3-5.8l.3-22.6.1-11 .3-21.6h1l.2 57v3.4c-.2 2.6-.2 2.6-2.2 4.6-11.5 2-23.7 1.2-35.3 1.2h-19.2c-10.3 0-10.3 0-13.5-3.2l-.1-6v-35.3z"/><path fill="#098bf5" d="M962 271.8h3.6l3.6.1 2.8.1.1 6.4.1 3.6c-.2 3-.2 3-2.2 5-3 .2-3 .2-6.6.1h-3.6l-2.8-.1-.1-6.4-.1-3.6c.3-4.2 1-5 5.2-5.2"/><path fill="#1b6f66" d="M283 532h9l1 7 7 2v8l-7.4.1h-2l-5.6-.1c-2-2-2-2-2.2-5.5v-4.1l.1-2.2z"/><path fill="#1bd3bb" d="M309 524h8l.1 7.4v2l-.1 5.6c-2 2-2 2-5.5 2.2h-4.1l-2.2-.1-5.2-.1v-9l7-1zm-28.5-9.2h4.1l2.2.1 5.2.1v9l-7 1-2 7h-8l-.1-7.4v-2l.1-5.6c2-2 2-2 5.5-2.2"/><path fill="#1b6f66" d="m292 507 7.4-.1h2l5.6.1c2 2 2 2 2.2 5.5v4.1l-.1 2.2-.1 5.2h-9l-1-7-7-2z"/><path fill="#21d3bc" d="M699 116c4 1.5 7 3 9 7 .6 3.8.2 5.6-1.6 9-2.4 2-2.4 2-6.1 1.8l-3.3-.8 1-2h2v-7l-7-1-2 3c-3.6.2-3.6.2-7 0 .2-3.7 1-5 3.6-7.8 3.6-2.8 7-3 11.4-2.2"/><path fill="#fdf9f7" d="M978 650.4c4 .8 5.5 2.3 8 5.6.6 3 .6 3 0 6-2.5 3.3-4 4.8-8 5.6-4-.8-5.5-2.3-8-5.6-.6-3-.6-3 0-6 2.5-3.3 4-4.8 8-5.6"/><path fill="#cdcdcd" d="M943 498h1v2.3l.7 56.1c0 2.8 0 2.8 2.3 4.6 2.7.3 2.7.3 5.9.3h53.5c2.8 0 2.8 0 4.6-2.3.3-2.7.3-2.7.3-5.8l.3-22.6.1-11 .3-21.6h1l.2 57v3.4c-.2 2.6-.2 2.6-2.2 4.6-2.6.3-2.6.3-5.8.4h-3.8l-36.4.6-9.8.2H952c-3.3-.2-6.5-.8-8.9-3.2l-.1-5.9v-34.8zm-409 0h1v2.3l.7 56.1c0 2.8 0 2.8 2.3 4.6 2.7.3 2.7.3 5.9.3h53.5c2.8 0 2.8 0 4.6-2.3.3-2.7.3-2.7.3-5.8l.3-22.6.1-11 .3-21.6h1l.2 57v3.4c-.2 2.6-.2 2.6-2.2 4.6-2.7.3-2.7.3-6.3.3h-57c-2.7-.3-2.7-.3-4.7-2.3-.2-2.6-.2-2.6-.2-6v-23.3l.1-11.4z"/><path fill="#cdcccd" d="M261 498h1l1 63 22.7.1 35.2.1h3.4c2.9 0 2.9 0 4.7-2.2.3-2.7.3-2.7.3-5.8v-3.7l.3-19 .1-11 .3-21.5h1l.2 57v3.4c-.2 2.6-.2 2.6-2.2 4.6-2.7.3-2.7.3-6.3.3h-57c-2.7-.3-2.7-.3-4.7-2.3-.2-2.6-.2-2.6-.2-6v-23.3l.1-11.4z"/><path fill="#cccccd" d="M943 236h1l1 63 22.7.1 35.2.1h3.4c2.9 0 2.9 0 4.7-2.2.3-2.7.3-2.7.3-5.8v-3.7l.3-19 .1-11 .3-21.5h1l.2 57v3.4c-.2 2.6-.2 2.6-2.2 4.6-2.7.3-2.7.3-6.3.3h-57c-2.7-.3-2.7-.3-4.7-2.3-.2-2.6-.2-2.6-.2-6v-23.3l.1-11.4z"/><path fill="#a7a9bc" d="M1068 14c3 1.6 3 1.6 5 4 .6 3 .6 3 0 6a26 26 0 0 1-12 5c-2.4-.4-2.4-.4-4-1l-1-4-.8-2.5c-.2-2.5-.2-2.5 1.6-4.7 3.8-3 6.3-3.2 11.2-2.8"/><path fill="#b1b4c6" d="M1144 13a9 9 0 0 1 4 4c.6 4 .6 6-1.6 9.4-3.3 2.2-5.5 2.2-9.4 1.6-2.4-1.6-2.4-1.6-4-4-.6-4-.6-6 1.6-9.4 3.3-2.2 5.5-2.2 9.4-1.6"/><path fill="#1b4c9b" d="M452 530c2.5 1.5 2.5 1.5 4 3-.3 2.9-.3 2.9-1 6a12 12 0 0 1-10 2q-6-2.3-12-5c5-5.5 11.8-6.7 19-6"/><path fill="#19d0b9" d="M723 116c2 1 2 1 3 2l.1 4v7.7l-.1 6.3-7-1-1-10-7 3c0-3.3.4-5.3 2.7-7.8 5.3-4.2 5.3-4.2 9.2-4.1"/><path fill="#30bcf9" d="m444 666-2 9h-20l-2-8c8-1.1 16-1.1 24-1"/><path fill="#975586" d="m287 668 2 1c4.3 1.5 8.5 1.7 13 2.1 3.8 1.1 5 2.5 7 5.9v3l-8.7.4-2.6.1a25 25 0 0 1-6.7-.5c-3-3.2-4-5-4.2-9.4z"/><path fill="#1e746b" d="M419 515q6 2.3 12 5c-3.8 4.2-8.8 5.6-14.3 6.3a14 14 0 0 1-7.8-1.4c-1.4-3-.8-4.9.1-7.9 3.6-2.4 5.9-2.7 10-2"/><path fill="#eac21a" d="m447 262-.2 2.8c-.1 3.2-.1 3.2 1.7 5.2 2 2.7 1.5 4.7 1.5 8l3 2-1 4c-2.9-.6-3.9-.9-6-3l-.6-2.4c-2-3.9-5.4-5-9.4-6.6.9-6.7.9-6.7 2-9 6.5-2.2 6.5-2.2 9-1"/><path fill="#f9b847" d="M820.4 532.8h2.7l2.8.1 2.1.1 1.9 5c1.6 2.8 3.8 4.8 6.1 7l-8.9.1h-2.5l-2.5.1H820c-1.9-.2-1.9-.2-3.9-2.2-.3-1.9-.3-1.9-.2-4v-2.1c.4-3.1 1.6-3.8 4.6-4.1"/><path fill="#cbcbce" d="M261 103h1v2.4l.7 54.6v3.4c0 2.8 0 2.8 2.3 4.6 2.7.3 2.7.3 6 .3h3.7l19.2.3 11.2.1 21.9.3c-2 2-2 2-4.1 2.2H282c-18-.1-18-.1-21-3.2-.3-2.4-.3-2.4-.3-5.4l-.1-3.5v-3.7l-.1-3.9-.3-18.3-.1-9.9-.1-3.7c0-5.7 0-11 1-16.6"/><path fill="#1dd2bb" d="m846 533 8.9-.1h2.5l2.5-.1h2.2c1.9.2 1.9.2 3.9 2.2.3 1.9.3 1.9.3 4v2.1c-.3 1.9-.3 1.9-2.3 3.9-2.4.2-2.4.2-5.1.1H856l-2.1-.1-1.9-5c-1.6-2.8-3.8-4.8-6.1-7"/><path fill="#19b4e9" d="M287 255h4l.4 3.2.6 3.8.3 2.8c1 2.9 2 3.7 4.7 5.2h3l1-2c3 .6 4.4 1.3 7 3l-1 4c-3.8 2-8 1.2-12 0q-6-4.5-10-11c-.2-3.6-.2-3.6 0-7z"/><path fill="#cccbcf" d="M943 104h1v2.3l.7 57.1c0 2.8 0 2.8 2.3 4.6 2.7.3 2.7.3 6 .3h3.7l19.2.3 11.2.1 21.9.3c-2.6 2.6-3.7 2.3-7.4 2.3H953c-3.4-.3-7.4-.8-9.9-3.3a254 254 0 0 1-.6-17.8l-.2-8.9a417 417 0 0 1 .8-37.3"/><path fill="#985184" d="m977 376 3 1v40h-4l-.1-31.2v-2.6l.1-6.2z"/><path fill="#995687" d="M690 391c4 1.7 6.8 4.2 10 7q-3.4 5.6-7 11c-7.5-4.9-7.5-4.9-9-7 0-4.9 2.9-7.6 6-11"/><path fill="#cccccf" d="M602 101c5.1 5.1 3.2 17.7 3.2 24.6V155c0 10 0 10-2.2 13.9-4 1.7-7.5 2.2-12 2.2h-20.9L560 171l-20-.1-1-2h2.3l56.1-.7c2.8 0 2.8 0 4.6-2.3.3-2.8.3-2.8.2-6.2v-24L602 124z"/><path fill="#9a5586" d="M296.6 652c3.4 1 3.4 1 5.4 2.1 1.7 3.2.9 5.6 0 8.9-2.1 2.3-3.4 2.9-6.5 3.5-2.5-.5-2.5-.5-4.8-2.7-1.8-3-2.4-4.3-1.7-7.8 2.3-3.5 3.3-4 7.6-4"/><path fill="#388dc0" d="m824 652 7 1v6l1.9-3c2.1-3 2.1-3 4.1-4h7v3l-2.2-.7-2.8-.3c-2.3 1.8-2.3 1.8-4 4l2 5h8l-1 3c-5 .3-7.9 0-12-3l-2 3c-3.6.2-3.6.2-7 0l-2-5h3l1 2h3v-2l-3-1v-2l2-1 1-3h-3v3h-3c.9-3.9.9-3.9 2-5"/><path fill="#cdcdce" d="M401.7 99.8h28l12 .1 23.3.1v1h-2.4l-55.5.7h-3.4c-2.9 0-2.9 0-4.7 2.3-.3 2.7-.3 2.7-.2 5.9v53.3q.2 3.5 1.2 6.8l-3-2c-.4-2.7-.4-2.7-.4-6.3V128l.1-19.6v-3.6c.4-3.8 1.2-4.6 5-5"/><path fill="#925787" d="M693.2 265.6c4 .5 5.4 2.3 8.2 5l2.7 2.7c1.9 2.7 1.9 2.7 1.7 5.5l-.8 2.2c-2.2.8-2.2.8-5 1-2.7-2-2.7-2-5.3-4.6l-2.7-2.7c-2-2.7-2-2.7-2.4-5.5.5-3 .7-3 3.6-3.6"/><path fill="#cdcdce" d="M1012 366h1l.2 57.9v3.4c-.2 2.7-.2 2.7-2.2 4.7q-5.4 1.3-10.9 1.1h-31.7L948 433v-2h2.3l56.1-.7c2.8 0 2.8 0 4.6-2.3.3-2.7.3-2.7.3-6l.3-22.9.1-11.2z"/><path fill="#cccccd" d="M397 366h1v2.3l.7 57.1c0 2.8 0 2.8 2.3 4.6 2.8.3 2.8.3 6.1.3h3.9l19.8.3 11.5.1 22.7.3a15 15 0 0 1-8.6 2.2H431c-31 0-31 0-34.1-3.2-.2-2.7-.2-2.7-.2-6.1v-23.7l.1-11.5z"/><path fill="#fb868b" d="M833 254h9v33l-4-1 1-1 .4-8.3.2-3.3v-3.3l.4-8.1h-9v-6z"/><path fill="#b3b4c0" d="m831 708 6.2.9 1.8.1 1-1h5l1 1 2-1c1.6 1.3 1.6 1.3 3 3-.3 3-1.3 4.4-3 7-7.1.7-7.1.7-10-1.5l-1-1.5-2 3c-2.6.2-2.6.2-5 0l1-2h3v-2l-3-2h3v-3z"/><path fill="#fafcfb" d="M571.8 268.8h3.5l2.7.2c-.8 3.1-1.5 5.5-3.7 7.9-3.1 1.5-5.6 1.4-9 1.3h-3.6l-2.7-.2c.3-3.4.8-4.8 3.1-7.3 3.5-2 5.7-2.1 9.7-2"/><path fill="#cdcdcd" d="M603 628h1l.2 57.9v3.4c-.2 2.7-.2 2.7-2.2 4.7-2.3.3-2.3.3-5.2.3l-3.4.1h-3.6l-3.7.1-27.1.4-3.6.1c-6 0-11.6 0-17.4-1v-1h2.3l53.8-.7h3.3c2.8 0 2.8 0 4.6-2.3.3-2.7.3-2.7.3-6l.3-22.9.1-11.2zM466 498h1l.2 57v3.4c-.2 2.6-.2 2.6-2.2 4.6-7.3 1.4-15 1.2-22.4 1.2h-34.4c-2.4-.2-4-1-6.2-2.2h2.3l52.9-.7h3.2c2.8 0 2.8 0 4.6-2.3.3-2.7.3-2.7.3-5.8v-3.7l.3-19 .1-11z"/><path fill="#cccccd" d="M397 628h1v2.3l.7 57.1c0 2.8 0 2.8 2.3 4.6 2.7.3 2.7.3 6 .3l22.9.3 11.2.1 21.9.3v1l-57.9.2h-3.4c-2.7-.2-2.7-.2-4.7-2.2-.2-2.7-.2-2.7-.2-6.1v-23.7l.1-11.5zm137-262h1v2.3l.7 57.1c0 2.8 0 2.8 2.3 4.6 2.7.3 2.7.3 6 .3h3.7l19.2.3 11.2.1 21.9.3v1l-57.9.2h-3.4c-2.7-.2-2.7-.2-4.7-2.2-.2-2.7-.2-2.7-.2-6.1v-23.7l.1-11.5z"/><path fill="#cdcdcd" d="M806 498h1v2.3l.7 56.1c0 2.8 0 2.8 2.3 4.6 2.7.3 2.7.3 6 .3l22.9.3 11.2.1 21.9.3v1l-57.9.2h-3.4c-2.7-.2-2.7-.2-4.7-2.2-.2-2.6-.2-2.6-.2-6v-23.3l.1-11.4zm-136 0h1v2.3l.7 56.1c0 2.8 0 2.8 2.3 4.6 2.7.3 2.7.3 6 .3l22.9.3 11.2.1 21.9.3v1l-57.9.2h-3.4c-2.7-.2-2.7-.2-4.7-2.2-.2-2.6-.2-2.6-.2-6v-23.3l.1-11.4z"/><path fill="#cccccd" d="M534 236h1v2.3l.7 56.1c0 2.8 0 2.8 2.3 4.6 2.7.3 2.7.3 6 .3h3.7l19.2.3 11.2.1 21.9.3v1l-57.9.2h-3.4c-2.7-.2-2.7-.2-4.7-2.2-.2-2.6-.2-2.6-.2-6v-23.3l.1-11.4z"/><path fill="#f5fdfc" d="M985 390c4.7.3 8.7 2.7 12 6v3l-4.2 2.5-2.4 1.4C988 404 988 404 984 404v-6.4l-.1-3.7c.1-2.9.1-2.9 1.1-3.9"/><path fill="#fefcf7" d="M972 391v12c-4 1-4 1-6.4 0q-1-.8-2.4-1.4l-2.4-1.5-1.8-1.1c.4-2.6.7-3.7 2.7-5.5l2.1-1.3 2-1.3c2.2-.9 2.2-.9 6.2.1"/><path fill="#2a303d" d="M1095 13.5c3 .5 3 .5 5.4 2.2l1.6 2.3-1 5-11 3-1-4-.8-2c-.2-2-.2-2 1.4-4.2 2.4-1.8 2.4-1.8 5.4-2.3"/><path fill="#f4f8f7" d="m572 255 2 2c-.2 3.5-.2 3.5-1 7-3.2 2.1-4.3 2.6-8 2a9 9 0 0 1-3.4-6.6c.4-2.4.4-2.4 1.5-4.3 3-1.8 5.5-.9 8.9-.1"/><path fill="#06b08a" d="m996.1 271.9 2.9.1.1 6.4.1 3.6c-.2 3-.2 3-2.2 5h-6l-.1-6.4-.1-3.6c.3-4.2 1-5 5.3-5.1"/><path fill="#1dd3bb" d="m983.1 271.9 2.9.1.1 6.4.1 3.6c-.2 3-.2 3-2.2 5h-6l-.1-6.4-.1-3.6c.3-4.2 1-5 5.3-5.1"/><path fill="#f9484e" d="m984 258 6.4-.1 3.6-.1c3 .2 3 .2 5 2.2v6l-6.4.1-3.6.1c-3-.2-3-.2-5-2.2z"/><path fill="#fc878c" d="m984 245 6.4-.1 3.6-.1c3 .2 3 .2 5 2.2v6l-6.4.1-3.6.1c-3-.2-3-.2-5-2.2z"/><path fill="#fbbe53" d="m285 408 2.5 1.4a18 18 0 0 0 7.6 2c3.9.6 3.9.6 6.4 3.2l1.5 2.4c-4.3 2.1-10 1.7-14.4.2a15 15 0 0 1-7.6-6.2z"/><path fill="#f3898f" d="m823 380 4 4-2 2.3c-3 4-3.1 7-3.1 12v3.5q0 4.1 1.1 8.2c-4-3.5-5.7-6.7-6.2-12.1-.2-5.6.8-9.8 3.2-14.9z"/><path fill="#29d5be" d="M295.6 375.7c5.2 0 9.2 1.2 13.4 4.3l2 3-4 4-1.2-1.4c-2.4-2-4.2-2.1-7.3-2.5-5.2-.8-5.2-.8-7.7-3.7l-.8-2.4c1.6-1.6 3.3-1.2 5.6-1.3"/><path fill="#a4abbe" d="M821 184c6.8.8 6.8.8 9 3 2.6.2 2.6.2 5 0v7c-4.7.1-4.7.1-7-1l-7 1z"/><path fill="#a0a1b2" d="m441 314.8 6 .2v3h4v7h-1v-6h-3v6c-7.7.1-7.7.1-10-1v-7c2-2 2-2 4-2.2"/><path fill="#896190" d="m967 111 22.6-.1h3.6c2.8.1 2.8.1 3.8 1.1l.1 6.8v3L997 156h-1l-1-42-27-1z"/><path fill="#f28990" d="m849.6 375.5 4.4 2.5-2 1-3-1-6.4-.2H839c-3 .2-4.5.8-7.1 2.2-2.7-.4-2.7-.4-5-1v-3c8.3-3.6 14.3-4.6 22.6-.5"/><path fill="#92919f" d="m248 577 5 5 2-2 4 1c2.7-.4 2.7-.4 5-1l-1 4-2 1 2 2h-12v-3h-5v3l-2-1z"/><path fill="#01637d" d="m704 250 7 6-3 2-2.9 2.7c-3.1 2.3-3.1 2.3-6 2.1l-2.1-.8c-.4-2-.4-2 0-5q3.2-3.8 7-7"/><path fill="#39384c" d="M1144 13a9 9 0 0 1 4 4c.6 4 .6 6-1.6 9.4-3.3 2.2-5.5 2.2-9.4 1.6-2.4-1.6-2.4-1.6-4-4-.6-4-.6-6 1.6-9.4 3.3-2.2 5.5-2.2 9.4-1.6m-7.8 3.2c-1.6 2.4-1.6 4-1.2 6.8 1 2 1 2 3 3 2.9.4 4.4.4 6.8-1.2 1.6-2.4 1.6-4 1.2-6.8-1-2-1-2-3-3-2.9-.4-4.4-.4-6.8 1.2"/><path fill="#f8f4f5" d="m428 261 10 2-2 9-10-1z"/><path fill="#f7888c" d="M568 379a85 85 0 0 1 13 5 8 8 0 0 1 1 4l-3-.9c-4.4-.1-4.9.2-8 2.8l-3 3.1z"/><path fill="#94709a" d="M967.5 143.9c3.5.1 3.5.1 4.5 1.1l.1 4v2.2c-.1 1.8-.1 1.8-1.1 2.8h-7c-1-1-1-1-1.1-2.8v-4.4c.2-3.3 1.1-2.8 4.6-3"/><path fill="#9d5a8b" d="m723 116.1 2 .9 1 4-15 7c1.1-6.8 1.1-6.8 4.8-9.4 2.8-2 3.7-2.6 7.2-2.5"/><path fill="#c7bcbf" d="M455 447h2l2 3 2.4-.6 2.6-.4c1 1 1 1 1 4v3h-13v-7h3z"/><path fill="#f5f5f5" d="M845 652c4 0 4 0 6.3 2l1.7 2 3-4 4 1-5 5 .9 1.8 3.1 6.2c-3.3-.6-4.8-1.5-7-4l-3 4-3-1 4-6z"/><path fill="#a7abbe" d="M303.3 186.9h5.5c2.2.1 2.2.1 3.2 1.1v6h-5.4l-3.1.1c-2.5-.1-2.5-.1-3.5-1.1v-5c1-1 1-1 3.3-1.1"/><path fill="#a29eb1" d="M575.5 183.8c2.5.2 2.5.2 4.5 2.2.3 3 .3 3 0 6-2 2-2 2-4.5 2.3-2.5-.3-2.5-.3-4.5-2.3-.2-3-.2-3 0-6 2-2 2-2 4.5-2.2"/><path fill="#865c8d" d="M967.5 132.9c3.5.1 3.5.1 4.5 1.1v8h-8c-1-1-1-1-1.1-4.5.1-4.5.1-4.5 4.6-4.6"/><path fill="#8f8a9b" d="M986 184h2v4l3-.6 3-.4c1 1 1 1 1 4v3h-9l-1-4-3 4-1-4 2-1 1.5-2.6z"/><path fill="#ae94b3" d="m980.4 109.6 4 .1 9.6.3v1l-26 1v6l-2 2h-4l-2-4c5.4-7.7 11.6-6.7 20.4-6.4"/><path fill="#b0b1bf" d="m976 449 4 1 5-1c1 1 1 1 1 4v3h-11l-1-5z"/><path fill="#acd38e" d="M1240 16h6c2 2 2 2 2.1 5.6l-.1 3.4c-2.7 1.4-5 1-8 1z"/><path fill="#bedcf8" d="M555 128h2l3 6 1-6h2v14h-2l-3-6-1 7h-2z"/><path fill="#a4a0ac" d="M945 315h6c2 2 2 2 2.3 5l-.3 3c-3 2-3 2-8 2z"/><path fill="#ccccce" d="M534 104h1v2.3l.7 53.6v3.3c.3 2.8.9 4.4 2.3 6.8-2-.7-2-.7-4-2-1.2-3.3-1-6.5-1-10v-3.6l.1-4 .3-14.5.2-10.8zm-204 0h1q1.3 19 .8 38.3l-.3 15.8v8c-.5 1.9-.5 1.9-3.5 3.9l.5-1.6q.8-4.2.7-8.5l.3-23 .2-11zm136 0h1q1.3 11.8 1 23.6v3.5l-.5 28.9v5.8l-.5 2.2-3 2 .5-1.6q.8-4.2.7-8.5l.3-23 .2-11z"/><path fill="#cdcdce" d="M1012 104h1q1.3 10.9 1 21.8v3.7l-.5 30.1v6.1l-.5 2.3-3 2c0-3 0-3 1-4l.2-5.8v-3.8l.3-19.2.2-11.2z"/><path fill="#cccccd" d="M670 103h1v2.4l.8 54.4v3.3q.2 3.6 1.2 6.9c-3-2-3-2-3.7-3.7a52 52 0 0 1-.3-8.4v-3.7l.1-4 .3-14.8.2-11z"/><path fill="#4e4f61" d="M1068 14c3 1.6 3 1.6 5 4 .6 3 .6 3 0 6a26 26 0 0 1-12 5c-2.4-.4-2.4-.4-4-1l-1-4-.8-2.5c-.2-2.5-.2-2.5 1.6-4.7 3.8-3 6.3-3.2 11.2-2.8m-11 4c-.6 3.2-.2 4.6 1.5 7.4 2.3 1.8 2.3 1.8 4.4 1.5a25 25 0 0 0 9.1-3.9c-.6-4-.6-4-3-7-2.1-.3-2.1-.3-4.4-.2h-2.4c-2.5 0-2.5 0-5.2 2.2"/><path fill="#9898a7" d="m547 709 1 2c2.9 1.3 2.9 1.3 5.6.4l2.4-.4 2 2c-.4 2.6-.4 2.6-1 5h-10c-1.1-6.7-1.1-6.7 0-9"/><path fill="#cdcdce" d="M330 366h1l.3 57.9v3.4q0 1.4-.3 2.7l-3 2c0-3 0-3 1-4l.3-9.6.2-19.2.2-11.2z"/><path fill="#339529" d="M450 253c.3 2.3.3 2.3 0 5-3.6 4-6.8 4.6-12 5 1.7-6 5.5-10 12-10"/><path fill="#817d99" d="M440 184h1v10h-9l-1-5h-2l-1 5h-1v-7h13z"/><path fill="#cdcdcd" d="M330 628h1l.3 57.9v3.4q0 1.4-.3 2.7l-3 2 .5-1.6q.8-4.2.7-8.5V680l.3-19.1.2-11.2z"/><path fill="#9f9ca4" d="M295 580h5.4l3.1-.1c2.5.1 2.5.1 3.5 1.1v6h-12l3-6z"/><path fill="#cccccd" d="M603 236h1a3730 3730 0 0 1 1.4 58.2c-.5 3.5-1.7 4.6-4.4 6.8l.5-1.6q.8-4.2.7-8.5v-3.7l.1-4 .2-14.8.2-11zm272-132h1l.3 57.9v3.4q0 1.4-.3 2.7l-3 2 .5-1.6q.8-4.2.7-8.5V156l.3-19.1.2-11.2z"/><path fill="#cdcdcd" d="M806 104h1v2.3l.8 53.7v3.3c0 2.8 0 2.8 1.2 5.7l-3-1c-1.3-3.2-1-6.5-1-10v-3.6l.1-4 .3-14.5.2-10.8z"/><path fill="#c6c6d8" d="M570 316h2v2h3.4c3.6 0 3.6 0 4.6 1v6c-7 0-7 0-10-1-1.1-5.7-1.1-5.7 0-8"/><path fill="#cacbda" d="m842 184 3 1h-2v2h3.4c3.6 0 3.6 0 4.6 1v6c-3.7.2-4.8.2-8-2v2h-2l-1-7h2z"/><path fill="#af94b3" d="M975 148h13v3h-4v3h-9z"/><path fill="#9c98a0" d="M708 711h11l-2 5 2 2h-12l1-4h3v-2z"/><path fill="#06617d" d="M418 651c15.7-.6 15.7-.6 23 3v1c-15.7.6-15.7.6-23-3z"/><path fill="#005f7a" d="M691 266c2.2-.3 2.2-.3 5 0 2.7 2 2.7 2 5.3 4.8l2.7 2.6c2 2.6 2 2.6 2 6.6-4-1.6-6.8-4.5-9.7-7.6l-1.6-1.5c-3.7-3.8-3.7-3.8-3.7-4.9"/><path fill="#9396aa" d="m276 578 1 2h8l1 4-4 1 3 2h-9c-1.1-6.7-1.1-6.7 0-9"/><path fill="#0c6580" d="M422 663c7.7-.3 14-.3 21 3v1c-7.7.3-14 .3-21-3z"/><path fill="#f2f2f2" d="M844 652v3l-2.2-.7-2.8-.3c-2.3 1.8-2.3 1.8-4 4l2 5h8l-1 3c-3.5.2-6.2.3-9.4-1-1.6-2-1.6-2-2.1-5.4.5-3.6.5-3.6 2-6 3.3-2.1 5.7-1.9 9.5-1.6"/><path fill="#e44c12" d="m436 272 6 2.1c2 .9 2 .9 4 2.9v4c-2.7.4-2.7.4-6 0-2.6-3.1-4-4.9-4-9"/><path fill="#7a2562" d="M426 271c-2.6 5.8-2.6 5.8-6 8h-5c.3-3 .6-4.6 2.7-6.8 2.9-1.5 5-1.4 8.3-1.2"/><path fill="#cacad7" d="m1064.4 15.8 2.4-.1c2.2.3 2.2.3 4 1.7 1.2 1.6 1.2 1.6.9 3.8l-.7 1.8-4-4-1 3-2-2h-6l-1 2 1-5c2.3-1.2 3.8-1.2 6.4-1.2"/><path fill="#9296a8" d="M945 449h8v7h-8z"/><path fill="#1ed3bc" d="M844 151h18l-1 3h-18z"/><path fill="#888799" d="M826 185h2l2 2c2.6.2 2.6.2 5 0v7c-3.6.2-5.9-.1-9-2z"/><path fill="#6e7082" d="M448 708h2v10h-6c-1-1-1-1-1-3.6V712l5-1z"/><path fill="#abb0bf" d="M318 577h2v10h-6l-2-2c.4-2.1.4-2.1 1-4l5-1z"/><path fill="#26d5be" d="M856 523c2.6.4 2.6.4 5 1 .6 2.4.6 2.4 1 5l-2 2c-2.6-.4-2.6-.4-5-1-.6-2.4-.6-2.4-1-5z"/><path fill="#fbbc4f" d="M822 523c2.6.4 2.6.4 5 1 .6 2.4.6 2.4 1 5l-2 2c-2.6-.4-2.6-.4-5-1-.6-2.4-.6-2.4-1-5z"/><path fill="#707485" d="M272 446h2v3l5 1-1 6h-6z"/><path fill="#6f7285" d="M421 318h6c1.1 4.8 1.1 4.8 0 7h-4v3h-2z"/><path fill="#6f7284" d="M301 318h6c1.1 4.8 1.1 4.8 0 7h-4v3h-2z"/><path fill="#69718c" d="M709 315c3 3 3 3 5 6l3-6h2v10h-2l-1-3-3 3-2-4-2 4z"/><path fill="#6d6f83" d="M1009 315h2v10h-6c-1-1-1-1-1-3.6V319l5-1z"/><path fill="#6e7083" d="M847 315h2v10h-6c-1-1-1-1-1-3.6V319l5-1z"/><path fill="#2ee3b2" d="M287 255h4c1.3 6.6 1.3 6.6-1 10v-2l-5 1v-7z"/><path fill="#855b8c" d="m965.8 121.9 6.2.1v7l-1-2-5 1v-2l3-1-4-1v6h6v1h-7c-1-1-1-1-1.1-4.5.1-4.4.1-4.4 3-4.6"/><path fill="#b9b9c3" d="M341 578h2l2 2h3v7h-6c-2.1-6.7-2.1-6.7-1-9"/><path fill="#b8b8c4" d="M331 447h2l2 2h3v7h-6c-2.1-6.7-2.1-6.7-1-9"/><path fill="#8e93a2" d="M301 711h8v7h-9l3-5z"/><path fill="#787690" d="M390 315c2.5 1.3 2.9 2.5 4 5l1-5h2v7h-2l-1 3c-2-1-2-1-4-4l-1 4-3-1v-5l2 1z"/><path fill="#b3b9c8" d="M452 577h2v3l4 1c.6 1.9.6 1.9 1 4l-2 2h-5z"/><path fill="#6a6d84" d="M837 449v8l-2 1v-2l-5-1v-5c2.5-1.2 4.3-1 7-1"/><path fill="#b1b7c7" d="M264 446h2v3l4 1c.6 1.9.6 1.9 1 4l-2 2h-5z"/><path fill="#8c92a1" d="M575.6 711h2.4v8l-2 1v-2l-5-1c1-6 1-6 4.6-6"/><path fill="#8f95a3" d="M754.6 580h2.4v8l-2 1v-2l-5-1c1-6 1-6 4.6-6"/><path fill="#8f95a4" d="M706.6 449h2.4v8l-2 1v-2l-5-1c1-6 1-6 4.6-6"/><path fill="#124156" d="M420 252c2.9.3 2.9.3 6 1 1.9 2.5 2 3.8 2 7-4.3-.5-6.2-1.7-9-5z"/><path fill="#06af8b" d="m829 150 15 1-1 3h-16z"/><path fill="#83859b" d="m1207 19 5 1 1 4h3v2h-4.4l-2.5.1c-2.1-.1-2.1-.1-3.1-1.1v-5z"/><path fill="#8b8894" d="M700 315h5c.8 3.4 1.1 5.7 0 9l-1-3h-2v4h-2z"/><path fill="#98909a" d="M955 711h5l2 2c-.4 2.1-.4 2.1-1 4l-5 1-1 3z"/><path fill="#988f9b" d="M962 580h5l2 2c-.4 2.1-.4 2.1-1 4l-5 1-1 3z"/><path fill="#9596a9" d="m869 578 1 2h5v7h-6c-1.1-6.7-1.1-6.7 0-9"/><path fill="#9696a9" d="m735 578 1 2h5v7h-6c-1.1-6.7-1.1-6.7 0-9"/><path fill="#9697a9" d="m596 447 1 2h5v7h-6c-1.1-6.7-1.1-6.7 0-9"/><path fill="#948b99" d="M413 318h5l2 2c-.4 2.1-.4 2.1-1 4l-5 1-1 3z"/><path fill="#8f8ea7" d="m587 316 1 2h5v7h-6c-1.1-6.7-1.1-6.7 0-9"/><path fill="#7c7a88" d="M416 184h2v4h3v2h3l1-2v3l-4 1 4 2h-9z"/><path fill="#908998" d="M679 187h5l2 2c-.4 2.1-.4 2.1-1 4l-5 1-1 3z"/><path fill="#9d5a8b" d="M446 118v6l-8 4c.3-4 .6-5.6 3.4-8.4 2.6-1.6 2.6-1.6 4.6-1.6"/><path fill="#7f7c9c" d="m461 316 1 2h4l1-2v2l2 1h-2v5l2 1-1.7-.6c-2.5-.4-4-.2-6.3.6-1.1-6.7-1.1-6.7 0-9"/><path fill="#938b9c" d="M850 577h1v10h-5c-1-1-1-1-1-3.6V581l5-1z"/><path fill="#848494" d="M719 577h2l1 5 4-2-2 4 2 3-4-2-1 2h-2v-6h-2v6h-1v-7h3z"/><path fill="#4a5b86" d="M678 711h5c1 1 1 1 1 3.6v2.4l-5 1-1 3z"/><path fill="#9a9ba7" d="m969 712 1 5c-1 1-1 1-3.5 1.1-2.5-.1-2.5-.1-3.5-1.1v-5c2.5-1.2 3.4-.8 6 0m-239 0 1 5c-1 1-1 1-3.5 1.1-2.5-.1-2.5-.1-3.5-1.1v-5c2.5-1.2 3.4-.8 6 0"/><path fill="#94889b" d="M686 711h5c1 1 1 1 1 3.6v2.4l-5 1-1 3z"/><path fill="#9b969f" d="m984.6 710.9 2.4.1v7h-5l-2-5c2-2 2-2 4.6-2.1"/><path fill="#787b8f" d="M831 708q4 .7 8 2l1 7h-2l-1-2-2 3c-2.6.2-2.6.2-5 0l1-2h3v-2l-3-2h3v-3z"/><path fill="#4a5b87" d="M822 580h5c1 1 1 1 1 3.6v2.4l-5 1-1 3z"/><path fill="#495985" d="M310 318h5c1 1 1 1 1 3.6v2.4l-5 1-1 3zm644-131h5c1 1 1 1 1 3.6v2.4l-5 1-1 3z"/><path fill="#8f849a" d="M962 187h5c1 1 1 1 1 3.6v2.4l-5 1-1 3z"/><path fill="#8d8399" d="M671 187h5c1 1 1 1 1 3.6v2.4l-5 1-1 3z"/><path fill="#9394a3" d="m330 188-1 5-5 1c-1-1-1-1-1-3.6V188c2.7-1.3 4.2-.7 7 0"/><path fill="#9494a3" d="m267 188-1 5-5 1c-1-1-1-1-1-3.6V188c2.7-1.3 4.2-.7 7 0"/><path fill="#938f9d" d="m710.6 186.9 2.4.1v7h-5l-2-5c2-2 2-2 4.6-2.1"/><path fill="#cae3f9" d="M575 127h8v2h-3v13h-2v-13h-3z"/><path fill="#fc8b8c" d="m447 116 5 1 1 4-7 3v-7z"/><path fill="#9399aa" d="m593 711 5 1v5c-2.4.6-2.4.6-5 1l-2-2c.5-3.5.5-3.5 2-5M424 580l5 1v5c-2.4.6-2.4.6-5 1l-2-2c.5-3.5.5-3.5 2-5"/><path fill="#9398ab" d="m999 449 5 1v5c-2.4.6-2.4.6-5 1l-2-2c.5-3.5.5-3.5 2-5"/><path fill="#9298a9" d="m282 449 5 1v5c-2.4.6-2.4.6-5 1l-2-2c.5-3.5.5-3.5 2-5"/><path fill="#8c91a7" d="m460 187 5 1v5c-2.4.6-2.4.6-5 1l-2-2c.5-3.5.5-3.5 2-5"/><path fill="#09657f" d="m720 116 5 1 1 4-7 3v-7z"/><path fill="#95909c" d="M957.6 318h2.4v7h-5c-1-1-1-1-1.1-3.5.1-3.4.2-3.5 3.7-3.6"/><path fill="#f1f6f7" d="m724 140 2 1c-1.5 3.8-3.8 5.6-7 8l-4-4 1-3 4 2z"/><path fill="#7f5f78" d="M23 15q3.6 1.8 7 4c-.3 3.2-.6 4.6-3 6.8-2 1.2-2 1.2-4 1.2v-3l3-2v-2l-3-2z"/><path fill="#948f9a" d="M999 580h5v7h-5c-1.1-4.7-1.1-4.7 0-7"/><path fill="#918c99" d="M406 318h5v7h-5c-1.1-4.7-1.1-4.7 0-7"/><path fill="#6c6f8e" d="m1005 187 5 1v6h-5c-1-1-1-1-1.1-3.5.1-2.5.1-2.5 1.1-3.5"/><path fill="#8e8997" d="M443 187h5v7h-5c-1.1-4.7-1.1-4.7 0-7"/><path fill="#9f80a5" d="m997 156-1 3-34-1v-1l25.6-.8h2.1z"/><path fill="#9a96a3" d="m1000 711 5 1v5l-5 1c-1-1-1-1-1.1-3.5.1-2.5.1-2.5 1.1-3.5"/><path fill="#9a95a3" d="m528 711 5 1v5l-5 1c-1-1-1-1-1.1-3.5.1-2.5.1-2.5 1.1-3.5"/><path fill="#9393a5" d="m312 711 5 1v5l-5 1c-1-1-1-1-1.1-3.5.1-2.5.1-2.5 1.1-3.5"/><path fill="#9d98a5" d="m527 580 5 1v5l-5 1c-1-1-1-1-1.1-3.5.1-2.5.1-2.5 1.1-3.5"/><path fill="#9797a9" d="m547 449 5 1v5l-5 1c-1-1-1-1-1.1-3.5.1-2.5.1-2.5 1.1-3.5"/><path fill="#9392a7" d="m410 449 5 1v5l-5 1c-1-1-1-1-1.1-3.5.1-2.5.1-2.5 1.1-3.5"/><path fill="#8d8694" d="M937 446h5l1 5-5 1-1 4z"/><path fill="#9893a4" d="m985 318 5 1v5l-5 1c-1-1-1-1-1.1-3.5.1-2.5.1-2.5 1.1-3.5"/><path fill="#908fa7" d="m555 318 5 1v5l-5 1c-1-1-1-1-1.1-3.5.1-2.5.1-2.5 1.1-3.5"/><path fill="#e95a70" d="M433.6 281h2.4l1 5c-1 1-1 1-3.6 1H431l-1-5c1-1 1-1 3.6-1"/><path fill="#644d90" d="m411 265 5 1c.6 1.9.6 1.9 1 4l-2 2c-2.1-.4-2.1-.4-4-1-1.1-3.7-1.1-3.7 0-6"/><path fill="#656079" d="M665 184c3.4 2.7 4 5.9 5 10h-2v-3h-5v3l-2-1 1.4-4 .8-2.2c.8-1.8.8-1.8 1.8-2.8"/><path fill="#807c8c" d="M671 708h2c3.1 6.6 3.1 6.6 2 10l-1-3h-4l-1 3c-1-2-1-2-.4-4l.8-2.1 1-2.2q.2-.9.6-1.7"/><path fill="#7a7a8f" d="M267 708h2l3 10-2-1v-2h-4l-1 3c-1.4-4.2.2-6.1 2-10"/><path fill="#685b6e" d="M248 577c3.3 3.3 3.9 5.5 5 10h-2v-3h-5v3l-2-1z"/><path fill="#a7aab7" d="M536 580h3l1 7h-5c-.6-2.4-.6-2.4-1-5z"/><path fill="#685b6e" d="M258 446c3.3 3.3 3.9 5.5 5 10h-2v-3h-5v3l-2-1z"/><path fill="#2abdaa" d="m429 246 5 1v5c-3.7 1.1-3.7 1.1-6 0v-5z"/><path fill="#6b5974" d="M543 184c3.7 1.2 4.2 2.6 6 6l1-6h1v10h-2l-4-6-1 6h-1z"/><path fill="#e7e3e2" d="m538 447 5 1v5l-2 2h-3z"/><path fill="#09637e" d="M693 132c6.2.6 6.2.6 8 1l1 2a19 19 0 0 1-10 2z"/><path fill="#f9888c" d="M420 132c6.2.6 6.2.6 8 1l1 2a19 19 0 0 1-10 2z"/><path fill="#7c7389" d="m434 580 3 1h3l1 2 2-3-1 7h-2l-2-2-2 2c-2-3-2-3-2-7"/><path fill="#7a7990" d="M455 447h2c1 3.2 1 5.7 1 9h-6v-7h3z"/><path fill="#cebed1" d="M972 123h1v7c-2.9 1.4-5 .6-8 0v-6h5l-1 2h-3v2l5-1z"/><path fill="#797886" d="M618 708h2l1 4h3l-2 3 2 3h-6z"/><path fill="#c8b6cb" d="M965 135h5l1 6h-6z"/><path fill="#edc419" d="m449 262 5 1-1 5-5-1z"/><path fill="#868da3" d="M313 187h6v7h-6l3-6z"/><path fill="#767a8d" d="m708 711 5 1v6h-6l1-4h3v-2z"/><path fill="#91909b" d="M988 711h6l-2 5 2 2h-5z"/><path fill="#787b8e" d="m709 580 5 1v6h-6l1-4h3v-2zm-30 0 5 1v6h-6l1-4h3v-2z"/><path fill="#74788d" d="m993 318 5 1v6h-6l1-4h3v-2z"/><path fill="#74778c" d="m454 318 5 1v6h-6l1-4h3v-2zm-159 0 5 1v6h-6l1-4h3v-2z"/><path fill="#72758b" d="m307 187 5 1v6h-6l1-4h3v-2z"/><path fill="#73768c" d="m947 187 5 1v6h-6l1-4h3v-2z"/><path fill="#8b8e9e" d="m445 581 1 2h3l1-2 1 6h-6l-1-5z"/><path fill="#76778f" d="m405.2 184.4 1.8.6-2 1.3-2 1.7v4l4 2h-5c-2-2-2-2-2.3-5l.3-3c3-2 3-2 5.2-1.6"/><path fill="#838ba0" d="M423 711h5v7h-6l3-5z"/><path fill="#838ba2" d="M988 449h5v7h-6l3-5z"/><path fill="#6c7188" d="m1021 187 5 1v3l-4 1 3 2-5-1v-5z"/><path fill="#6a7088" d="m728 187 5 1v3l-4 1 3 2-5-1v-5z"/><path fill="#707387" d="M728 580h4l1 4-4 1 3 2-5-1v-5z"/><path fill="#6e7185" d="M281 580h4l1 4-4 1 3 2-5-1v-5z"/><path fill="#6e7186" d="M828 318h4l1 4-4 1 3 2-5-1v-5z"/><path fill="#6c6f86" d="M471 318h4l1 4-4 1 3 2-5-1v-5z"/><path fill="#262f47" d="m1134 19 .9 1.9c1 2.2 1 2.2 3.1 4.1l7 1-1 2c-6.4.4-6.4.4-9-1.1-1.4-2.7-1.2-4.9-1-7.9"/><path fill="#5b5776" d="M581 711h5v4.4l.1 2.5c-.1 2.1-.1 2.1-1.1 3.1h-5l4-1v-2l-3-1 3-1v-3z"/><path fill="#5c5877" d="M614 580h5v4.4l.1 2.5c-.1 2.1-.1 2.1-1.1 3.1h-5l4-1v-2l-3-1 3-1v-3z"/><path fill="#595676" d="M1013 187h5v4.4l.1 2.5c-.1 2.1-.1 2.1-1.1 3.1h-5l4-1v-2l-3-1 3-1v-3z"/><path fill="#777687" d="m977 184 3 1c.8 3 1.2 4.5 0 7.3l-1 1.7h-2z"/><path fill="#8a6291" d="M971 145h1v8h-7v-1h6v-2l-4 1v-3h2z"/><path fill="#2c3043" d="m1103 22 3 1-1 5-8-1c1.4-2.8 3.2-3.6 6-5"/><path fill="#b2c0cf" d="m420 711 6 1-4 6h-2z"/><path fill="#6d6e84" d="M545 580h4v7h-5l1-4h3v-2z"/><path fill="#a7acb6" d="m254 581 3 1v5l-5-1c.9-3.9.9-3.9 2-5"/><path fill="#696a82" d="M410 187h4v7h-5l1-4h3v-2z"/><path fill="#84808e" d="m972 711 3 1h-2v2l3 1-1 3h-4v-6z"/><path fill="#dbd1dd" d="M965 146h5c-1 3-1 3-3 4h4v2h-6z"/><path fill="#b7bcc8" d="m580 712 5 1-1 4h-4z"/><path fill="#bac0cb" d="m613 581 5 1-1 4h-4z"/><path fill="#737b92" d="M831 580h4l1 4h-5l-1 2v-5z"/><path fill="#727990" d="M327 580h4l1 4h-5l-1 2v-5z"/><path fill="#736774" d="M452 577h2v3l3 1-3 1v3l3 2h-5z"/><path fill="#675d7e" d="M437 446h2v3l3 1-3 1v3l3 2h-5z"/><path fill="#bcb9c3" d="M439 450h4v5l-5-1z"/><path fill="#717990" d="M317 449h4l1 4h-5l-1 2v-5z"/><path fill="#726673" d="M264 446h2v3l3 1-3 1v3l3 2h-5z"/><path fill="#6c7193" d="M284 315c1.5 3.8.4 6.3-1 10h-2l-1-7 2 2z"/><path fill="#675d7f" d="M976 315h2v3l3 1-3 1v3l3 2h-5z"/><path fill="#bbb9c4" d="M978 319h4v5l-5-1z"/><path fill="#1ac9cb" d="M286 263h4a22 22 0 0 1 3 5l-4 1c-3-3.7-3-3.7-3-6"/><path fill="#6c7194" d="M936 184c1.5 3.8.4 6.3-1 10h-2l-1-7 2 2z"/><path fill="#b0b4c6" d="m1012 188 5 1-1 4h-4z"/><path fill="#6e758f" d="M591 187h4l1 4h-5l-1 2v-5z"/><path fill="#5b6279" d="m846 187 5 1v6h-5l3-1v-2l-3-1h3v-2l-3 1z"/><path fill="#6a6e87" d="M1189 19h5l-1 7-4-1h3v-2l-3-1z"/><path fill="#5b6275" d="m565 711 5 1v6h-5l3-1v-2l-3-1h3v-2z"/><path fill="#5b6175" d="m452 711 5 1v6h-5l3-1v-2l-3-1h3v-2zm-19 0 5 1v6h-5l3-1v-2l-3-1h3v-2z"/><path fill="#7a7684" d="m270 580 3 1h-2v2l3 1-1 3h-4c0-4 0-4 1-7"/><path fill="#5c6276" d="m571 580 5 1v6h-5l3-1v-2l-3-1h3v-2z"/><path fill="#5b6176" d="m981 449 5 1v6h-5l3-1v-2l-3-1h3v-2z"/><path fill="#5a6175" d="m430 449 5 1v6h-5l3-1v-2l-3-1h3v-2z"/><path fill="#9f482f" d="m434 388 1 2c-4.8 6.3-4.8 6.3-9 7l2.9-3.4 1.6-1.9z"/><path fill="#595f75" d="m575 318 5 1v6h-5l3-1v-2l-3-1h3v-2z"/><path fill="#e96876" d="m448 279 5 1-1 4-4-1z"/><path fill="#6f728f" d="M306 581h1v6h-5l1-4h3z"/><path fill="#9c8381" d="M318 577h2v10l-2-4c-2-1.7-2-1.7-4-3h4z"/><path fill="#6e718f" d="M464 450h1v6h-5l1-4h3z"/><path fill="#6e728f" d="M301 450h1v6h-5l1-4h3z"/><path fill="#37bbae" d="m412 248 4 1-1 4-4-1z"/><path fill="#6c6f8e" d="M994 188h1v6h-5l1-4h3z"/><path fill="#6b7283" d="m842 184 3 1h-2l1 3-1 6h-2l-1-7h2z"/><path fill="#b8a1bc" d="m963 113 3 1v4h-5c0-3 0-3 2-5"/><path fill="#737280" d="M459 709h2c1 3.2 1 5.7 1 9l-3-1c-1.1-5.7-1.1-5.7 0-8"/><path fill="#75747e" d="M341 578h2c1 3.2 1 5.7 1 9l-3-1c-1.1-5.7-1.1-5.7 0-8"/><path fill="#747380" d="M418 578h2c1 3.2 1 5.7 1 9l-3-1c-1.1-5.7-1.1-5.7 0-8"/><path fill="#777680" d="M718 447h2c1 3.2 1 5.7 1 9l-3-1c-1.1-5.7-1.1-5.7 0-8"/><path fill="#74737e" d="M331 447h2c1 3.2 1 5.7 1 9l-3-1c-1.1-5.7-1.1-5.7 0-8"/><path fill="#727180" d="M425 447h2c1 3.2 1 5.7 1 9l-3-1c-1.1-5.7-1.1-5.7 0-8"/><path fill="#737281" d="M854 316h2c1 3.2 1 5.7 1 9l-3-1c-1.1-5.7-1.1-5.7 0-8"/><path fill="#706f80" d="M582 316h2c1 3.2 1 5.7 1 9l-3-1c-1.1-5.7-1.1-5.7 0-8m-12 0h2c1 3.2 1 5.7 1 9l-3-1c-1.1-5.7-1.1-5.7 0-8"/><path fill="#f4f9fd" d="M555 128h2l1 4h-2v10h-1z"/><path fill="#f1e7b0" d="M448 259c1 3 1 5.8 1 9h-3c-.2-5.6-.2-5.6 2-9"/><path fill="#cfd5dd" d="M445 712h3v5l-4-1z"/><path fill="#787078" d="m597 578 1 2 2 1v6l-3-1c-1.1-5.7-1.1-5.7 0-8"/><path fill="#9399a8" d="m248 577 3 3-1 3h-3v-5z"/><path fill="#d1e0ea" d="M851 450h3v5l-4-1z"/><path fill="#d5dae4" d="M832 450h3v5l-4-1z"/><path fill="#d2e0eb" d="M824 450h3v5l-4-1z"/><path fill="#d3e2eb" d="M696 450h3v5l-4-1z"/><path fill="#bcaca6" d="M297 449h4v3l-3 1-2 2v-5z"/><path fill="#e3dcdd" d="M986 450h5l-4 6h-1z"/><path fill="#797179" d="m723 447 1 2 2 1v6l-3-1c-1.1-5.7-1.1-5.7 0-8"/><path fill="#9398a9" d="m258 446 3 3-1 3h-3v-5z"/><path fill="#cdd2e0" d="M1006 319h3v5l-4-1z"/><path fill="#d0d5e1" d="M844 319h3v5l-4-1z"/><path fill="#dfdaef" d="m416 263 2 1c.2 6 .2 6 0 8l-2 2c-1-3.2-.8-3.9 0-7l-1-2z"/><path fill="#dafaf1" d="m284 248 2 1-7 7-1-2z"/><path fill="#b6a7a5" d="M1005 187h4v3l-3 1-2 2v-5z"/><path fill="#8e94ab" d="m665 184 3 3-1 3h-3v-5z"/><path fill="#916c98" d="M971 122h1v7l-1-2-5 1v-2l2-.9c2.2-1 2.2-1 3-3.1"/><path fill="#d2cfde" d="m1141.6 15.9 2.4.1-4 1v3h-2v2h-2c.8-3.8 1.3-6 5.6-6.1"/><path fill="#dadede" d="m680 712 3 1-1 4h-3z"/><path fill="#b7c1d0" d="M264 580h1v6h-5z"/><path fill="#dde1e1" d="m824 581 3 1-1 4h-3z"/><path fill="#ddd8d5" d="m275 450 3 1-1 4h-3z"/><path fill="#44bcf2" d="m827 414 9 3v3c-4-1.3-6.2-3-9-6"/><path fill="#868197" d="M962 318h4v6l-1-2-3-1z"/><path fill="#d9d2d5" d="m424 319 3 1-1 4h-3z"/><path fill="#dad4d5" d="m304 319 3 1-1 4h-3z"/><path fill="#d4d7dc" d="m312 319 3 1-1 4h-3z"/><path fill="#d1d4dc" d="m956 188 3 1-1 4h-3z"/><path fill="#d8d0d2" d="m312 187 4 1c-1.7 4.9-1.7 4.9-4 6z"/></svg>