<?xml version="1.0" encoding="UTF-8"?>
<svg version="1.1" xmlns="http://www.w3.org/2000/svg" width="500" height="500">
<path d="M0 0 C1.28519531 -0.00773437 2.57039062 -0.01546875 3.89453125 -0.0234375 C16.30753131 0.00151325 28.39411692 1.55161193 40.5 4.25 C41.38913086 4.4449707 42.27826172 4.63994141 43.19433594 4.84082031 C70.76603111 11.03659993 97.18895243 21.56745547 119.5 39.25 C120.52609375 40.054375 121.5521875 40.85875 122.609375 41.6875 C149.76250148 63.5667353 170.65789478 90.77293892 183.5 123.25 C183.78955566 123.9821875 184.07911133 124.714375 184.37744141 125.46875 C201.81917949 170.80289679 199.45984994 223.34857726 180.09667969 267.5715332 C163.71407672 303.71302122 137.57291159 333.81845618 103.5 354.25 C102.8301709 354.65605469 102.1603418 355.06210937 101.47021484 355.48046875 C62.53359378 378.85502769 14.02592841 387.08964296 -30.5 378.25 C-31.3667334 378.07839355 -32.2334668 377.90678711 -33.12646484 377.72998047 C-66.80195825 370.82961843 -97.88086523 355.74338761 -123.19921875 332.36328125 C-125.27785234 330.45404395 -127.40420746 328.63023356 -129.5625 326.8125 C-158.88247231 301.13549018 -177.70581895 261.05436467 -184.5 223.25 C-184.68618896 222.23301025 -184.87237793 221.21602051 -185.06420898 220.16821289 C-186.59884256 210.810974 -186.83982658 201.60395476 -186.81567383 192.14770508 C-186.81252524 189.5830582 -186.8360294 187.01958265 -186.86132812 184.45507812 C-186.92104763 169.08563319 -185.01255824 154.12284523 -180.8125 139.3125 C-180.55758789 138.40266357 -180.30267578 137.49282715 -180.04003906 136.55541992 C-171.99757268 108.79834136 -158.38167128 83.29889268 -138.5 62.25 C-137.41243658 60.96189298 -136.32898087 59.67030466 -135.25 58.375 C-121.16312791 42.36281509 -103.39303227 29.93613508 -84.5 20.25 C-83.82646484 19.90098633 -83.15292969 19.55197266 -82.45898438 19.19238281 C-68.6682203 12.12770905 -54.33713671 7.44417731 -39.25 4 C-38.26108765 3.77328613 -38.26108765 3.77328613 -37.25219727 3.54199219 C-24.86440585 0.88607369 -12.64615759 -0.07610526 0 0 Z " fill="#FDFEFE" transform="translate(250.5,65.75)"/>
<path d="M0 0 C0.87370239 -0.00817749 1.74740479 -0.01635498 2.64758301 -0.02478027 C5.53693974 -0.04957673 8.42624749 -0.06613663 11.31567383 -0.08056641 C12.30473536 -0.08589008 13.29379688 -0.09121376 14.31282997 -0.09669876 C19.54920297 -0.12340686 24.78555234 -0.14278824 30.02197266 -0.15722656 C34.34705795 -0.17055803 38.67167059 -0.19839971 42.99658203 -0.23925781 C48.22729008 -0.28866789 53.45756991 -0.31335794 58.68850136 -0.32045364 C60.67673735 -0.32715098 62.66496435 -0.34233332 64.65306664 -0.36634445 C67.44369144 -0.39812211 70.23267773 -0.39801386 73.0234375 -0.390625 C74.24185081 -0.415233 74.24185081 -0.415233 75.48487854 -0.44033813 C81.69045154 -0.37349581 86.31536001 1.53112589 91.33520508 5.19287109 C91.83020508 6.18287109 91.83020508 6.18287109 92.33520508 7.19287109 C92.91270508 6.90412109 93.49020508 6.61537109 94.08520508 6.31787109 C96.16853841 5.27620443 98.25187174 4.23453776 100.33520508 3.19287109 C100.33520508 2.53287109 100.33520508 1.87287109 100.33520508 1.19287109 C106.33411076 -0.51716179 112.18144386 -0.442665 118.14770508 1.31787109 C123.41174486 4.41436508 126.42572892 8.33727592 128.33520508 14.19287109 C128.58130074 17.11948109 128.58130074 17.11948109 128.57571411 20.41279602 C128.5798381 22.2910482 128.5798381 22.2910482 128.58404541 24.20724487 C128.57696807 25.58697606 128.56969847 26.96670628 128.56225586 28.34643555 C128.56169146 29.80528251 128.56200886 31.26413005 128.56314087 32.72297668 C128.56371428 36.67714986 128.55196187 40.6312015 128.53799295 44.58534646 C128.52548366 48.71999256 128.52431494 52.85464149 128.52194214 56.98930359 C128.51572796 64.8160927 128.49931797 72.64282588 128.47924316 80.46959037 C128.45688224 89.38125804 128.44589024 98.2929284 128.43585229 107.20461714 C128.41495169 125.53406682 128.3797769 143.86346446 128.33520508 162.19287109 C128.96081329 162.18620926 129.58642151 162.17954742 130.23098755 162.17268372 C136.75232801 162.10622547 143.27357197 162.06102683 149.79516602 162.02807617 C152.22782297 162.01300576 154.66045282 161.99254587 157.09301758 161.96655273 C160.59308568 161.93009369 164.09279398 161.9131269 167.59301758 161.89990234 C169.21991013 161.87667656 169.21991013 161.87667656 170.87966919 161.85298157 C178.10457734 161.85137751 182.53377133 162.70978209 188.08520508 167.63037109 C192.51373758 172.67397756 192.77211677 176.61673761 192.65161133 183.21240234 C192.07254031 188.66710833 189.88511594 191.72244284 185.89770508 195.50537109 C180.93927106 198.7706813 177.02753828 199.44998454 171.1015625 199.49926758 C170.39191849 199.50759109 169.68227448 199.51591461 168.9511261 199.52449036 C166.61425219 199.54850766 164.27765792 199.55735252 161.94067383 199.56396484 C160.30788595 199.57293803 158.67509888 199.58206 157.04231262 199.59132385 C153.62193813 199.60779432 150.2016613 199.61551031 146.78125 199.6184082 C142.41323765 199.62378765 138.04615199 199.66145706 133.67840099 199.70715237 C130.30590013 199.7369981 126.93362033 199.74413339 123.56099892 199.74513435 C121.95152864 199.74932238 120.34205685 199.7616995 118.73271751 199.7826519 C103.5785893 199.96423393 103.5785893 199.96423393 97.73286438 195.57215881 C93.92388858 191.81325023 91.45267379 187.82639449 91.21215725 182.43426991 C91.21307904 181.30876067 91.21400084 180.18325144 91.21495056 179.02363586 C91.21288857 177.08640152 91.21288857 177.08640152 91.21078491 175.11003113 C91.21432408 173.67581154 91.21795889 172.24159218 91.22167969 170.80737305 C91.22196171 169.29956057 91.22180353 167.79174795 91.22123718 166.28393555 C91.2209498 162.18712443 91.22683703 158.09034247 91.23381114 153.99353814 C91.24005447 149.71340091 91.24064925 145.43326303 91.24183655 141.15312195 C91.24494697 133.04650048 91.25315647 124.93989247 91.26318604 116.83327693 C91.27435614 107.6048479 91.27985989 98.37641825 91.28488147 89.14798415 C91.29533931 70.16293883 91.31293318 51.17790604 91.33520508 32.19287109 C90.42770508 32.83224609 89.52020508 33.47162109 88.58520508 34.13037109 C83.75186528 37.19768289 80.50555563 37.31724199 74.82250977 37.30639648 C73.85603012 37.30661552 73.85603012 37.30661552 72.87002563 37.30683899 C70.74900905 37.3061446 68.62808125 37.29837446 66.50708008 37.29052734 C65.0330612 37.28866148 63.5590417 37.28723837 62.08502197 37.28623962 C58.21181516 37.2824277 54.33864605 37.27260875 50.4654541 37.26153564 C45.81482726 37.2494911 41.16418779 37.24491297 36.5135498 37.23908234 C29.45407537 37.22939627 22.3946836 37.21023047 15.33520508 37.19287109 C15.33520508 51.71287109 15.33520508 66.23287109 15.33520508 81.19287109 C28.9323312 81.11383101 28.9323312 81.11383101 42.52929688 81.01269531 C44.23933665 81.00685172 45.94937922 81.00175585 47.65942383 80.99755859 C48.54069946 80.98732666 49.4219751 80.97709473 50.32995605 80.96655273 C56.26759296 80.96486854 60.23687886 81.401617 64.89770508 85.38037109 C69.46682769 90.65243564 72.1339 94.80324935 71.78442383 101.85302734 C70.71428749 107.42704182 67.91421027 112.4353475 63.21020508 115.69287109 C59.67754507 117.53599805 57.07038302 118.31820196 53.13916016 118.30639648 C52.29851517 118.30632095 51.45787018 118.30624542 50.5917511 118.3061676 C49.68853622 118.30100632 48.78532135 118.29584503 47.85473633 118.29052734 C46.92674728 118.2891124 45.99875824 118.28769745 45.04264832 118.28623962 C42.0776345 118.28064046 39.11269609 118.26808814 36.14770508 118.25537109 C34.13794054 118.25035598 32.12817483 118.2457931 30.1184082 118.24169922 C25.19064476 118.23067131 20.2629377 118.21340726 15.33520508 118.19287109 C15.34186691 119.0314566 15.34852875 119.87004211 15.35539246 120.73403931 C15.41558436 128.64942483 15.4612205 136.56473312 15.49064159 144.48029518 C15.50627595 148.54946304 15.52747316 152.61844126 15.56152344 156.6875 C15.5941969 160.6167626 15.61207486 164.54584317 15.61983681 168.47523117 C15.62536603 169.97190592 15.63616332 171.46857106 15.65239525 172.965168 C15.67427651 175.06683886 15.67716766 177.16776421 15.67578125 179.26953125 C15.68244308 180.46422028 15.68910492 181.6589093 15.69596863 182.88980103 C15.11873913 188.17478473 13.2686316 191.30002834 9.46020508 194.94287109 C4.32270634 198.64187019 0.27605338 199.78101075 -6.03198242 199.63037109 C-10.72843916 198.84995098 -14.39170799 196.60605125 -17.66479492 193.19287109 C-22.83954541 185.54319893 -22.23046268 177.49948305 -22.18237305 168.60668945 C-22.18779876 166.92230119 -22.19492394 165.23791768 -22.20361328 163.55354309 C-22.22179483 158.99572178 -22.21480093 154.43826404 -22.20209694 149.88043666 C-22.19194409 145.10310713 -22.2013688 140.32580797 -22.2076416 135.54847717 C-22.21491065 127.52811108 -22.20534906 119.50789251 -22.1862793 111.48754883 C-22.16450456 102.22271375 -22.17156927 92.95823071 -22.19358492 83.69340414 C-22.21175122 75.72883755 -22.21429145 67.76437678 -22.20383024 59.79979616 C-22.19760303 55.04719146 -22.19673856 50.29475212 -22.2099762 45.54215813 C-22.22155226 41.0743802 -22.21347704 36.60705522 -22.19039917 32.1393261 C-22.18512176 30.50229646 -22.18660929 28.86522854 -22.19544983 27.22821426 C-22.20642779 24.98850101 -22.19261708 22.7502271 -22.17272949 20.51060486 C-22.17122139 19.25906081 -22.16971329 18.00751677 -22.16815948 16.71804714 C-21.41888192 11.47068663 -18.96460021 6.51544791 -14.66479492 3.19287109 C-14.00479492 3.19287109 -13.34479492 3.19287109 -12.66479492 3.19287109 C-12.66479492 2.53287109 -12.66479492 1.87287109 -12.66479492 1.19287109 C-8.45141359 0.01744681 -4.34650378 0.02251454 0 0 Z " fill="#448CFB" transform="translate(176.664794921875,156.80712890625)"/>
<path d="M0 0 C1.28519531 -0.00773437 2.57039062 -0.01546875 3.89453125 -0.0234375 C12.93808361 -0.00525951 21.58206068 0.85279252 30.5 2.25 C27.01352175 4.57431884 25.57473905 4.51218464 21.453125 4.55859375 C20.227146 4.58139404 19.00116699 4.60419434 17.73803711 4.62768555 C16.42198486 4.64742432 15.10593262 4.66716309 13.75 4.6875 C-33.52056198 5.80063933 -75.45294344 21.07358444 -110.5 53.25 C-111.0151416 53.71986328 -111.5302832 54.18972656 -112.06103516 54.67382812 C-144.50675013 84.63012869 -164.55068307 128.95238224 -166.6262207 172.92407227 C-168.072235 224.51694428 -150.55412611 270.37310018 -115.5 308.25 C-95.21479009 329.45122594 -68.37267478 343.83287967 -40.5 352.25 C-39.27023438 352.64574219 -38.04046875 353.04148437 -36.7734375 353.44921875 C6.5610539 366.37269789 54.04083447 358.98263625 93.56054688 338.16455078 C109.12777468 329.66944769 122.78853042 318.52935163 135.5 306.25 C136.16257812 305.63898438 136.82515625 305.02796875 137.5078125 304.3984375 C150.94715956 291.70919353 160.81070098 274.7290531 168.60644531 258.14794922 C169.41723935 256.42578724 170.25035362 254.7141777 171.0859375 253.00390625 C183.23331078 226.7488693 186.3413744 198.81690128 185.5 170.25 C185.47921387 169.51104492 185.45842773 168.77208984 185.43701172 168.01074219 C184.666221 145.50365314 178.35524495 123.40674741 168.5 103.25 C168.12327148 102.47736816 167.74654297 101.70473633 167.35839844 100.90869141 C162.76951008 91.61054434 158.00497549 82.90842879 151.5078125 74.79296875 C149.32867032 72.03300462 147.41796058 69.19574664 145.5 66.25 C145.83 65.59 146.16 64.93 146.5 64.25 C163.53374293 82.10662906 175.74243785 103.26724638 184.5 126.25 C185.20576172 128.05597656 185.20576172 128.05597656 185.92578125 129.8984375 C202.28567919 174.97679404 198.54432288 226.87438167 178.91796875 270.171875 C162.50625687 305.19597529 136.69459013 334.34513449 103.5 354.25 C102.8301709 354.65605469 102.1603418 355.06210937 101.47021484 355.48046875 C62.53359378 378.85502769 14.02592841 387.08964296 -30.5 378.25 C-31.3667334 378.07839355 -32.2334668 377.90678711 -33.12646484 377.72998047 C-66.80195825 370.82961843 -97.88086523 355.74338761 -123.19921875 332.36328125 C-125.27785234 330.45404395 -127.40420746 328.63023356 -129.5625 326.8125 C-158.88247231 301.13549018 -177.70581895 261.05436467 -184.5 223.25 C-184.68618896 222.23301025 -184.87237793 221.21602051 -185.06420898 220.16821289 C-186.59884256 210.810974 -186.83982658 201.60395476 -186.81567383 192.14770508 C-186.81252524 189.5830582 -186.8360294 187.01958265 -186.86132812 184.45507812 C-186.92104763 169.08563319 -185.01255824 154.12284523 -180.8125 139.3125 C-180.55758789 138.40266357 -180.30267578 137.49282715 -180.04003906 136.55541992 C-171.99757268 108.79834136 -158.38167128 83.29889268 -138.5 62.25 C-137.41243658 60.96189298 -136.32898087 59.67030466 -135.25 58.375 C-121.16312791 42.36281509 -103.39303227 29.93613508 -84.5 20.25 C-83.82646484 19.90098633 -83.15292969 19.55197266 -82.45898438 19.19238281 C-68.6682203 12.12770905 -54.33713671 7.44417731 -39.25 4 C-38.26108765 3.77328613 -38.26108765 3.77328613 -37.25219727 3.54199219 C-24.86440585 0.88607369 -12.64615759 -0.07610526 0 0 Z " fill="#4475F5" transform="translate(250.5,65.75)"/>
<path d="M0 0 C4.19393376 3.88161955 6.76452868 8.19973638 7.24609566 13.92660999 C7.24333028 15.55680089 7.24333028 15.55680089 7.24050903 17.21992493 C7.24325836 18.47209305 7.24600769 19.72426117 7.24884033 21.01437378 C7.241763 22.39410497 7.23449339 23.77383518 7.22705078 25.15356445 C7.22648639 26.61241142 7.22680378 28.07125895 7.22793579 29.53010559 C7.2285092 33.48427877 7.21675679 37.43833041 7.20278788 41.39247537 C7.19027858 45.52712146 7.18910986 49.6617704 7.18673706 53.7964325 C7.18052288 61.6232216 7.16411289 69.44995478 7.14403808 77.27671927 C7.12167717 86.18838695 7.11068516 95.1000573 7.10064721 104.01174605 C7.07974662 122.34119573 7.04457183 140.67059337 7 159 C7.62560822 158.99333817 8.25121643 158.98667633 8.89578247 158.97981262 C15.41712293 158.91335437 21.9383669 158.86815574 28.45996094 158.83520508 C30.89261789 158.82013466 33.32524774 158.79967477 35.7578125 158.77368164 C39.25788061 158.7372226 42.7575889 158.7202558 46.2578125 158.70703125 C47.88470505 158.68380547 47.88470505 158.68380547 49.54446411 158.66011047 C56.76937226 158.65850641 61.19856625 159.516911 66.75 164.4375 C71.17853251 169.48110646 71.4369117 173.42386652 71.31640625 180.01953125 C70.73733523 185.47423724 68.54991086 188.52957175 64.5625 192.3125 C59.60406598 195.57781021 55.6923332 196.25711345 49.76635742 196.30639648 C49.05671341 196.31472 48.3470694 196.32304352 47.61592102 196.33161926 C45.27904712 196.35563656 42.94245284 196.36448143 40.60546875 196.37109375 C38.97268087 196.38006694 37.3398938 196.3891889 35.70710754 196.39845276 C32.28673306 196.41492322 28.86645622 196.42263922 25.44604492 196.42553711 C21.07803257 196.43091656 16.71094691 196.46858597 12.34319592 196.51428127 C8.97069505 196.54412701 5.59841525 196.5512623 2.22579384 196.55226326 C0.61632357 196.55645129 -0.99314823 196.56882841 -2.60248756 196.58978081 C-17.75661578 196.77136284 -17.75661578 196.77136284 -23.6023407 192.37928772 C-27.53691145 188.49643507 -29.88565327 184.49340828 -30.1398077 178.9513979 C-30.14667882 177.68879233 -30.15354994 176.42618677 -30.16062927 175.12532043 C-30.16571709 174.42194713 -30.17080491 173.71857382 -30.17604691 172.99388617 C-30.19177414 170.6310986 -30.20029717 168.26834162 -30.20874023 165.90551758 C-30.21827851 164.21364142 -30.22816966 162.52176721 -30.23838806 160.82989502 C-30.26977711 155.26813066 -30.29004072 149.70635132 -30.30859375 144.14453125 C-30.31353973 142.72498158 -30.31353973 142.72498158 -30.31858563 141.27675414 C-30.34936719 132.35081851 -30.37607359 123.42487951 -30.39300442 114.49890614 C-30.41491019 103.08414597 -30.45687994 91.66985623 -30.52644199 80.25528413 C-30.5736992 72.22799145 -30.5979403 64.20082562 -30.6052013 56.1733982 C-30.61015507 51.37971801 -30.62520957 46.58656801 -30.6649456 41.79303932 C-30.70185573 37.28093347 -30.71020748 32.76965967 -30.69693947 28.25743103 C-30.69699335 26.60465857 -30.70726066 24.95184883 -30.7286911 23.29921532 C-30.91330714 8.25362897 -30.91330714 8.25362897 -25.58096409 2.25908947 C-24 1 -24 1 -21 0 C-21 -0.66 -21 -1.32 -21 -2 C-13.77176709 -4.0604618 -6.554537 -3.85561 0 0 Z " fill="#448CE6" transform="translate(298,160)"/>
<path d="M0 0 C2.87029869 1.79393668 4.49131638 2.98263276 6 6 C6.09979216 7.35694612 6.13935428 8.71858969 6.14717102 10.07917786 C6.15432632 10.9329451 6.16148163 11.78671234 6.16885376 12.66635132 C6.17154266 13.60508087 6.17423157 14.54381042 6.17700195 15.51098633 C6.18685875 16.99167351 6.18685875 16.99167351 6.19691467 18.50227356 C6.21667458 21.77886017 6.22831587 25.0554009 6.23828125 28.33203125 C6.24235678 29.44927771 6.2464323 30.56652416 6.25063133 31.71762657 C6.2715029 37.63018994 6.2858003 43.54273001 6.29516602 49.45532227 C6.30623671 55.56888606 6.34064145 61.6820865 6.38033772 67.79552174 C6.40645552 72.49066352 6.41485353 77.18571808 6.41844749 81.88092613 C6.42332544 84.13480777 6.43497355 86.38868521 6.45348549 88.64249611 C6.47777503 91.79556885 6.47693035 94.94769286 6.4699707 98.10083008 C6.48278076 99.03348694 6.49559082 99.9661438 6.50878906 100.92706299 C6.47476345 105.15208633 6.37482187 107.39847405 4.09562683 111.05619812 C1.09605592 113.83845471 -0.79636813 114.23880082 -4.8125 114.4375 C-5.66457031 114.49808594 -6.51664062 114.55867188 -7.39453125 114.62109375 C-10.60592329 113.85555952 -11.9214236 112.32936601 -13.94031334 109.78530502 C-15.72485512 106.77880176 -15.65592623 103.72704113 -15.56762695 100.34228516 C-15.56835709 99.60013763 -15.56908722 98.85799011 -15.56983948 98.09335327 C-15.5663759 95.65782736 -15.52757753 93.22425123 -15.48828125 90.7890625 C-15.47894864 89.09370976 -15.47183464 87.39834349 -15.46684265 85.70297241 C-15.44780786 81.25403208 -15.39873825 76.80591589 -15.34332275 72.3572998 C-15.29205376 67.81253201 -15.26931234 63.26763025 -15.24414062 58.72265625 C-15.19061542 49.81474329 -15.10534593 40.90744034 -15 32 C-15.66 32 -16.32 32 -17 32 C-17 32.66 -17 33.32 -17 34 C-21.71715844 38.46605495 -26.69354721 42.52068956 -33.375 42.8125 C-37.06915194 42.50122806 -37.99488728 42.00396497 -41.0625 39.625 C-44.09970072 35.5100829 -44.51609098 33.16090977 -44 28 C-40.85222629 22.89843572 -36.37449019 19.8909497 -31.5 16.5 C-28.71469851 14.55028896 -26.04406481 12.48078815 -23.375 10.375 C-22.55209473 9.73755859 -21.72918945 9.10011719 -20.88134766 8.44335938 C-19.2380994 7.16922572 -17.60696309 5.87928153 -15.98974609 4.57226562 C-10.77992542 0.58694295 -6.62462594 -1.41131152 0 0 Z " fill="#2D8CE7" transform="translate(364,117)"/>
<path d="M0 0 C7.1532508 -0.07617191 14.30639667 -0.12865121 21.45996094 -0.16479492 C23.89261789 -0.17986534 26.32524774 -0.20032523 28.7578125 -0.22631836 C32.25788061 -0.2627774 35.7575889 -0.2797442 39.2578125 -0.29296875 C40.88470505 -0.31619453 40.88470505 -0.31619453 42.54446411 -0.33988953 C49.76937226 -0.34149359 54.19856625 0.516911 59.75 5.4375 C64.17853251 10.48110646 64.4369117 14.42386652 64.31640625 21.01953125 C63.73733523 26.47423724 61.54991086 29.52957175 57.5625 33.3125 C52.76293249 36.4731908 49.01819047 37.24865608 43.28198242 37.22705078 C42.30065338 37.22748886 42.30065338 37.22748886 41.29949951 37.22793579 C39.15135121 37.22654982 37.00355596 37.21102371 34.85546875 37.1953125 C33.3604603 37.19157975 31.8654494 37.18873402 30.37043762 37.18673706 C26.44622986 37.17912118 22.52217145 37.15949041 18.59802246 37.1373291 C14.5894574 37.11682649 10.58086807 37.10772592 6.57226562 37.09765625 C-1.28522459 37.07624245 -9.14259369 37.04213138 -17 37 C-17 36.67 -17 36.34 -17 36 C-16.40832031 35.85304688 -15.81664062 35.70609375 -15.20703125 35.5546875 C-9.2444519 33.86220984 -6.34534809 32.2714576 -3 27 C-0.92807651 21.20009948 -0.58665964 15.68740096 -0.375 9.5625 C-0.33632813 8.64017578 -0.29765625 7.71785156 -0.2578125 6.76757812 C-0.16431324 4.51190857 -0.0785609 2.25623084 0 0 Z " fill="#5592F7" transform="translate(305,319)"/>
<path d="M0 0 C-3.65662904 2.43775269 -6.49415429 2.34686544 -10.73046875 2.4140625 C-11.85609978 2.44311172 -11.85609978 2.44311172 -13.00447083 2.4727478 C-15.39869867 2.53247459 -17.79297477 2.57890065 -20.1875 2.625 C-21.8118698 2.6631862 -23.43621948 2.70223831 -25.06054688 2.7421875 C-29.04020105 2.83817025 -33.01995001 2.92222636 -37 3 C-37 2.01 -37 1.02 -37 0 C-24.5883432 -0.70735857 -12.38695695 -1.39541109 0 0 Z " fill="#74C1FF" transform="translate(281,68)"/>
<path d="M0 0 C4.69564393 3.31457218 7.72469104 7.36279281 11 12 C10.34 12.66 9.68 13.32 9 14 C7.67925885 12.42353449 6.36868776 10.83854469 5.0625 9.25 C4.33160156 8.36828125 3.60070312 7.4865625 2.84765625 6.578125 C1.16962815 4.23669045 0.41264834 2.80338873 0 0 Z " fill="#77B7FC" transform="translate(396,130)"/>
<path d="M0 0 C4.95 0 9.9 0 15 0 C15 0.66 15 1.32 15 2 C10.05 2.33 5.1 2.66 0 3 C0 2.01 0 1.02 0 0 Z " fill="#63BAFF" transform="translate(244,68)"/>
</svg>
